{
	"asset":{
		"generator":"Khronos glTF Blender I/O v4.5.48",
		"version":"2.0"
	},
	"extensionsUsed":[
		"KHR_materials_clearcoat"
	],
	"scene":0,
	"scenes":[
		{
			"name":"Scene",
			"nodes":[
				0,
				1,
				2,
				3,
				4
			]
		}
	],
	"nodes":[
		{
			"mesh":0,
			"name":"Cube",
			"scale":[
				3.5541486740112305,
				1.0662446022033691,
				1.458364486694336
			],
			"translation":[
				0.00626366026699543,
				1.2465215921401978,
				-0.0026734336279332638
			]
		},
		{
			"mesh":1,
			"name":"Cylinder",
			"scale":[
				0.07108297199010849,
				0.17770743370056152,
				0.04861214756965637
			],
			"translation":[
				2.912651777267456,
				0.3220096528530121,
				-0.5039685368537903
			]
		},
		{
			"mesh":2,
			"name":"Cylinder.001",
			"scale":[
				0.07108297199010849,
				0.17770743370056152,
				0.04861214756965637
			],
			"translation":[
				2.916743278503418,
				0.3220669627189636,
				0.49539604783058167
			]
		},
		{
			"mesh":3,
			"name":"Cylinder.002",
			"scale":[
				0.07108297199010849,
				0.17770743370056152,
				0.04861214756965637
			],
			"translation":[
				-2.865722894668579,
				0.3221014142036438,
				-0.5082312822341919
			]
		},
		{
			"mesh":4,
			"name":"Cylinder.003",
			"scale":[
				0.07108297199010849,
				0.17770743370056152,
				0.04861214756965637
			],
			"translation":[
				-2.8616318702697754,
				0.3289778232574463,
				0.4934650659561157
			]
		}
	],
	"materials":[
		{
			"doubleSided":true,
			"name":"Tub",
			"pbrMetallicRoughness":{
				"baseColorFactor":[
					0.27275606989860535,
					0.27275606989860535,
					0.27275606989860535,
					1
				],
				"metallicFactor":0.20000000298023224,
				"roughnessFactor":0.20000000298023224
			}
		},
		{
			"doubleSided":true,
			"extensions":{
				"KHR_materials_clearcoat":{
					"clearcoatRoughnessFactor":0.11363636702299118
				}
			},
			"name":"Material.001",
			"pbrMetallicRoughness":{
				"baseColorFactor":[
					0.20049192011356354,
					0.20049192011356354,
					0.20049192011356354,
					1
				],
				"metallicFactor":0.20000000298023224,
				"roughnessFactor":0.20000000298023224
			}
		}
	],
	"meshes":[
		{
			"name":"Cube",
			"primitives":[
				{
					"attributes":{
						"POSITION":0,
						"NORMAL":1,
						"TEXCOORD_0":2,
						"TANGENT":3
					},
					"indices":4,
					"material":0
				}
			]
		},
		{
			"name":"Cylinder",
			"primitives":[
				{
					"attributes":{
						"POSITION":5,
						"NORMAL":6,
						"TEXCOORD_0":7
					},
					"indices":8,
					"material":1
				}
			]
		},
		{
			"name":"Cylinder.001",
			"primitives":[
				{
					"attributes":{
						"POSITION":9,
						"NORMAL":10,
						"TEXCOORD_0":11
					},
					"indices":8,
					"material":1
				}
			]
		},
		{
			"name":"Cylinder.002",
			"primitives":[
				{
					"attributes":{
						"POSITION":12,
						"NORMAL":13,
						"TEXCOORD_0":14
					},
					"indices":8,
					"material":1
				}
			]
		},
		{
			"name":"Cylinder.003",
			"primitives":[
				{
					"attributes":{
						"POSITION":15,
						"NORMAL":16,
						"TEXCOORD_0":17
					},
					"indices":8,
					"material":1
				}
			]
		}
	],
	"accessors":[
		{
			"bufferView":0,
			"componentType":5126,
			"count":3187,
			"max":[
				1.3350342512130737,
				1.0000001192092896,
				1.3801158666610718
			],
			"min":[
				-1.3350342512130737,
				-1,
				-1.3801158666610718
			],
			"type":"VEC3"
		},
		{
			"bufferView":1,
			"componentType":5126,
			"count":3187,
			"type":"VEC3"
		},
		{
			"bufferView":2,
			"componentType":5126,
			"count":3187,
			"type":"VEC2"
		},
		{
			"bufferView":3,
			"componentType":5126,
			"count":3187,
			"type":"VEC4"
		},
		{
			"bufferView":4,
			"componentType":5123,
			"count":15360,
			"type":"SCALAR"
		},
		{
			"bufferView":5,
			"componentType":5126,
			"count":192,
			"max":[
				1,
				1,
				1
			],
			"min":[
				-1,
				-1,
				-1
			],
			"type":"VEC3"
		},
		{
			"bufferView":6,
			"componentType":5126,
			"count":192,
			"type":"VEC3"
		},
		{
			"bufferView":7,
			"componentType":5126,
			"count":192,
			"type":"VEC2"
		},
		{
			"bufferView":8,
			"componentType":5123,
			"count":372,
			"type":"SCALAR"
		},
		{
			"bufferView":9,
			"componentType":5126,
			"count":192,
			"max":[
				1,
				1,
				1
			],
			"min":[
				-1,
				-1,
				-1
			],
			"type":"VEC3"
		},
		{
			"bufferView":10,
			"componentType":5126,
			"count":192,
			"type":"VEC3"
		},
		{
			"bufferView":11,
			"componentType":5126,
			"count":192,
			"type":"VEC2"
		},
		{
			"bufferView":12,
			"componentType":5126,
			"count":192,
			"max":[
				1,
				1,
				1
			],
			"min":[
				-1,
				-1,
				-1
			],
			"type":"VEC3"
		},
		{
			"bufferView":13,
			"componentType":5126,
			"count":192,
			"type":"VEC3"
		},
		{
			"bufferView":14,
			"componentType":5126,
			"count":192,
			"type":"VEC2"
		},
		{
			"bufferView":15,
			"componentType":5126,
			"count":192,
			"max":[
				1,
				1,
				1
			],
			"min":[
				-1,
				-1,
				-1
			],
			"type":"VEC3"
		},
		{
			"bufferView":16,
			"componentType":5126,
			"count":192,
			"type":"VEC3"
		},
		{
			"bufferView":17,
			"componentType":5126,
			"count":192,
			"type":"VEC2"
		}
	],
	"bufferViews":[
		{
			"buffer":0,
			"byteLength":38244,
			"byteOffset":0,
			"target":34962
		},
		{
			"buffer":0,
			"byteLength":38244,
			"byteOffset":38244,
			"target":34962
		},
		{
			"buffer":0,
			"byteLength":25496,
			"byteOffset":76488,
			"target":34962
		},
		{
			"buffer":0,
			"byteLength":50992,
			"byteOffset":101984,
			"target":34962
		},
		{
			"buffer":0,
			"byteLength":30720,
			"byteOffset":152976,
			"target":34963
		},
		{
			"buffer":0,
			"byteLength":2304,
			"byteOffset":183696,
			"target":34962
		},
		{
			"buffer":0,
			"byteLength":2304,
			"byteOffset":186000,
			"target":34962
		},
		{
			"buffer":0,
			"byteLength":1536,
			"byteOffset":188304,
			"target":34962
		},
		{
			"buffer":0,
			"byteLength":744,
			"byteOffset":189840,
			"target":34963
		},
		{
			"buffer":0,
			"byteLength":2304,
			"byteOffset":190584,
			"target":34962
		},
		{
			"buffer":0,
			"byteLength":2304,
			"byteOffset":192888,
			"target":34962
		},
		{
			"buffer":0,
			"byteLength":1536,
			"byteOffset":195192,
			"target":34962
		},
		{
			"buffer":0,
			"byteLength":2304,
			"byteOffset":196728,
			"target":34962
		},
		{
			"buffer":0,
			"byteLength":2304,
			"byteOffset":199032,
			"target":34962
		},
		{
			"buffer":0,
			"byteLength":1536,
			"byteOffset":201336,
			"target":34962
		},
		{
			"buffer":0,
			"byteLength":2304,
			"byteOffset":202872,
			"target":34962
		},
		{
			"buffer":0,
			"byteLength":2304,
			"byteOffset":205176,
			"target":34962
		},
		{
			"buffer":0,
			"byteLength":1536,
			"byteOffset":207480,
			"target":34962
		}
	],
	"buffers":[
		{
			"byteLength":209016,
			"uri":"Bathtub-bc40ec1197d38543c6bfa346740373d9.bin"
		}
	]
}
