{
	"asset":{
		"generator":"Khronos glTF Blender I/O v4.5.47",
		"version":"2.0"
	},
	"scene":0,
	"scenes":[
		{
			"name":"Scene",
			"nodes":[
				0,
				1,
				2,
				3,
				4,
				5,
				6,
				7,
				8,
				9,
				10,
				11,
				12,
				13
			]
		}
	],
	"nodes":[
		{
			"mesh":0,
			"name":"BedBase",
			"scale":[
				2.208386182785034,
				0.1630299687385559,
				2.4223222732543945
			],
			"translation":[
				1.9545979499816895,
				0.6887537240982056,
				0.03957021236419678
			]
		},
		{
			"mesh":1,
			"name":"BedMatress",
			"scale":[
				2.0363729000091553,
				0.0930112674832344,
				2.23364520072937
			],
			"translation":[
				2.0045299530029297,
				0.8191930055618286,
				0.049784064292907715
			]
		},
		{
			"mesh":2,
			"name":"Leg1",
			"scale":[
				0.07401219010353088,
				0.7642260789871216,
				0.07838211953639984
			],
			"translation":[
				0,
				0.7644703388214111,
				-2.4279301166534424
			]
		},
		{
			"mesh":3,
			"name":"Leg2",
			"scale":[
				0.07401219010353088,
				0.7642260789871216,
				0.07838211953639984
			],
			"translation":[
				-0.0024899598211050034,
				0.7612890601158142,
				2.5327911376953125
			]
		},
		{
			"mesh":4,
			"name":"BedFrame1",
			"scale":[
				0.07401219010353088,
				0.9535706639289856,
				2.562300443649292
			],
			"translation":[
				0.001374654471874237,
				1.418389081954956,
				0.05103851854801178
			]
		},
		{
			"mesh":5,
			"name":"Leg3",
			"scale":[
				0.07401219010353088,
				0.31857022643089294,
				0.07838211953639984
			],
			"translation":[
				3.9995036125183105,
				0.32378920912742615,
				2.003509044647217
			]
		},
		{
			"mesh":6,
			"name":"Leg4",
			"scale":[
				0.07401219010353088,
				0.31857022643089294,
				0.07838211953639984
			],
			"translation":[
				4.002048492431641,
				0.32378920912742615,
				-2.0039656162261963
			]
		},
		{
			"mesh":7,
			"name":"PillowSmall1",
			"scale":[
				0.23045112192630768,
				0.0930112674832344,
				0.4734070897102356
			],
			"translation":[
				0.7659908533096313,
				1.0265781879425049,
				1.5629338026046753
			]
		},
		{
			"mesh":8,
			"name":"PillowLong1",
			"scale":[
				0.1602625548839569,
				0.0930112674832344,
				1.1592155694961548
			],
			"translation":[
				0.2296002209186554,
				0.9818669557571411,
				1.0491234064102173
			]
		},
		{
			"mesh":9,
			"name":"PillowSmall2",
			"rotation":[
				0,
				0.99781733751297,
				0,
				0.06603479385375977
			],
			"scale":[
				0.23045112192630768,
				0.0930112674832344,
				0.4734070897102356
			],
			"translation":[
				0.788159966468811,
				1.0265781879425049,
				0.44964414834976196
			]
		},
		{
			"mesh":10,
			"name":"Blanket",
			"scale":[
				2.211670160293579,
				1.0770232677459717,
				2.997009038925171
			],
			"translation":[
				2.463345766067505,
				1.5192012786865234,
				0.0015077590942382812
			]
		},
		{
			"mesh":11,
			"name":"PillowLong1.001",
			"scale":[
				0.1602625548839569,
				0.0930112674832344,
				1.1592155694961548
			],
			"translation":[
				0.22852225601673126,
				0.9636899828910828,
				-1.227946400642395
			]
		},
		{
			"mesh":12,
			"name":"PillowSmall2.001",
			"rotation":[
				0.06447666138410568,
				0.21548284590244293,
				0.9742723107337952,
				0.014260448515415192
			],
			"scale":[
				0.23045113682746887,
				0.0930112674832344,
				0.4734070599079132
			],
			"translation":[
				0.7851583957672119,
				1.2403849363327026,
				-0.1484283208847046
			]
		},
		{
			"mesh":13,
			"name":"PillowSmall2.002",
			"rotation":[
				-0.025053635239601135,
				-0.9970965385437012,
				-0.01507922075688839,
				0.07031077146530151
			],
			"scale":[
				0.23045113682746887,
				0.0930112674832344,
				0.4734070897102356
			],
			"translation":[
				0.7852004766464233,
				1.0253084897994995,
				-1.2423490285873413
			]
		}
	],
	"materials":[
		{
			"doubleSided":true,
			"name":"BedBase",
			"pbrMetallicRoughness":{
				"baseColorFactor":[
					0.42414432764053345,
					0.37976402044296265,
					0.3856077790260315,
					1
				],
				"metallicFactor":0,
				"roughnessFactor":0.5
			}
		},
		{
			"doubleSided":true,
			"name":"BedMatress",
			"pbrMetallicRoughness":{
				"baseColorFactor":[
					0.10953985154628754,
					0.11426080763339996,
					0.11942146718502045,
					1
				],
				"metallicFactor":0,
				"roughnessFactor":0.5
			}
		},
		{
			"doubleSided":true,
			"name":"Leg1",
			"pbrMetallicRoughness":{
				"baseColorFactor":[
					0.09084121137857437,
					0.02121903747320175,
					0,
					1
				],
				"metallicFactor":0,
				"roughnessFactor":0.5
			}
		},
		{
			"doubleSided":true,
			"name":"Leg2",
			"pbrMetallicRoughness":{
				"baseColorFactor":[
					0.09084121137857437,
					0.02121903747320175,
					0,
					1
				],
				"metallicFactor":0,
				"roughnessFactor":0.5
			}
		},
		{
			"doubleSided":true,
			"name":"BedFrame",
			"pbrMetallicRoughness":{
				"baseColorFactor":[
					0.09084121137857437,
					0.02121903747320175,
					0,
					1
				],
				"metallicFactor":0,
				"roughnessFactor":0.5
			}
		},
		{
			"doubleSided":true,
			"name":"Leg3",
			"pbrMetallicRoughness":{
				"baseColorFactor":[
					0.09084121137857437,
					0.02121903747320175,
					0,
					1
				],
				"metallicFactor":0,
				"roughnessFactor":0.5
			}
		},
		{
			"doubleSided":true,
			"name":"Leg4",
			"pbrMetallicRoughness":{
				"baseColorFactor":[
					0.09084121137857437,
					0.02121903747320175,
					0,
					1
				],
				"metallicFactor":0,
				"roughnessFactor":0.5
			}
		},
		{
			"doubleSided":true,
			"name":"Blanket",
			"pbrMetallicRoughness":{
				"baseColorFactor":[
					0.0012352614430710673,
					0,
					0.040356624871492386,
					1
				],
				"metallicFactor":0,
				"roughnessFactor":0.5
			}
		}
	],
	"meshes":[
		{
			"name":"Cube.006",
			"primitives":[
				{
					"attributes":{
						"POSITION":0,
						"NORMAL":1,
						"TEXCOORD_0":2,
						"TANGENT":3
					},
					"indices":4,
					"material":0
				}
			]
		},
		{
			"name":"Cube.007",
			"primitives":[
				{
					"attributes":{
						"POSITION":5,
						"NORMAL":6,
						"TEXCOORD_0":7,
						"TANGENT":8
					},
					"indices":4,
					"material":1
				}
			]
		},
		{
			"name":"Cube.008",
			"primitives":[
				{
					"attributes":{
						"POSITION":9,
						"NORMAL":10,
						"TEXCOORD_0":11,
						"TANGENT":12
					},
					"indices":13,
					"material":2
				}
			]
		},
		{
			"name":"Cube.009",
			"primitives":[
				{
					"attributes":{
						"POSITION":14,
						"NORMAL":15,
						"TEXCOORD_0":16,
						"TANGENT":17
					},
					"indices":13,
					"material":3
				}
			]
		},
		{
			"name":"Cube.010",
			"primitives":[
				{
					"attributes":{
						"POSITION":18,
						"NORMAL":19,
						"TEXCOORD_0":20,
						"TANGENT":21
					},
					"indices":22,
					"material":4
				}
			]
		},
		{
			"name":"Cube.012",
			"primitives":[
				{
					"attributes":{
						"POSITION":23,
						"NORMAL":24,
						"TEXCOORD_0":25,
						"TANGENT":26
					},
					"indices":13,
					"material":5
				}
			]
		},
		{
			"name":"Cube.013",
			"primitives":[
				{
					"attributes":{
						"POSITION":27,
						"NORMAL":28,
						"TEXCOORD_0":29,
						"TANGENT":30
					},
					"indices":13,
					"material":6
				}
			]
		},
		{
			"name":"Mesh",
			"primitives":[
				{
					"attributes":{
						"POSITION":31,
						"NORMAL":32,
						"TEXCOORD_0":33,
						"TANGENT":34
					},
					"indices":35
				}
			]
		},
		{
			"name":"Mesh",
			"primitives":[
				{
					"attributes":{
						"POSITION":36,
						"NORMAL":37,
						"TEXCOORD_0":38,
						"TANGENT":39
					},
					"indices":4
				}
			]
		},
		{
			"name":"Mesh",
			"primitives":[
				{
					"attributes":{
						"POSITION":40,
						"NORMAL":41,
						"TEXCOORD_0":42,
						"TANGENT":43
					},
					"indices":35
				}
			]
		},
		{
			"name":"Plane.001",
			"primitives":[
				{
					"attributes":{
						"POSITION":44,
						"NORMAL":45,
						"TEXCOORD_0":46,
						"TANGENT":47
					},
					"indices":48,
					"material":7
				}
			]
		},
		{
			"name":"Mesh",
			"primitives":[
				{
					"attributes":{
						"POSITION":49,
						"NORMAL":50,
						"TEXCOORD_0":51,
						"TANGENT":52
					},
					"indices":4
				}
			]
		},
		{
			"name":"Mesh",
			"primitives":[
				{
					"attributes":{
						"POSITION":53,
						"NORMAL":54,
						"TEXCOORD_0":55,
						"TANGENT":56
					},
					"indices":35
				}
			]
		},
		{
			"name":"Mesh",
			"primitives":[
				{
					"attributes":{
						"POSITION":57,
						"NORMAL":58,
						"TEXCOORD_0":59,
						"TANGENT":60
					},
					"indices":35
				}
			]
		}
	],
	"accessors":[
		{
			"bufferView":0,
			"componentType":5126,
			"count":508,
			"max":[
				0.9943254590034485,
				1.0000001192092896,
				0.9915433526039124
			],
			"min":[
				-0.9916105270385742,
				-1.0000001192092896,
				-0.9892321228981018
			],
			"type":"VEC3"
		},
		{
			"bufferView":1,
			"componentType":5126,
			"count":508,
			"type":"VEC3"
		},
		{
			"bufferView":2,
			"componentType":5126,
			"count":508,
			"type":"VEC2"
		},
		{
			"bufferView":3,
			"componentType":5126,
			"count":508,
			"type":"VEC4"
		},
		{
			"bufferView":4,
			"componentType":5123,
			"count":912,
			"type":"SCALAR"
		},
		{
			"bufferView":5,
			"componentType":5126,
			"count":508,
			"max":[
				0.9943254590034485,
				1.0000001192092896,
				0.9915433526039124
			],
			"min":[
				-0.9916105270385742,
				-1.0000001192092896,
				-0.9892321228981018
			],
			"type":"VEC3"
		},
		{
			"bufferView":6,
			"componentType":5126,
			"count":508,
			"type":"VEC3"
		},
		{
			"bufferView":7,
			"componentType":5126,
			"count":508,
			"type":"VEC2"
		},
		{
			"bufferView":8,
			"componentType":5126,
			"count":508,
			"type":"VEC4"
		},
		{
			"bufferView":9,
			"componentType":5126,
			"count":24,
			"max":[
				1,
				1,
				1
			],
			"min":[
				-1,
				-1,
				-1
			],
			"type":"VEC3"
		},
		{
			"bufferView":10,
			"componentType":5126,
			"count":24,
			"type":"VEC3"
		},
		{
			"bufferView":11,
			"componentType":5126,
			"count":24,
			"type":"VEC2"
		},
		{
			"bufferView":12,
			"componentType":5126,
			"count":24,
			"type":"VEC4"
		},
		{
			"bufferView":13,
			"componentType":5123,
			"count":36,
			"type":"SCALAR"
		},
		{
			"bufferView":14,
			"componentType":5126,
			"count":24,
			"max":[
				1,
				1,
				1
			],
			"min":[
				-1,
				-1,
				-1
			],
			"type":"VEC3"
		},
		{
			"bufferView":15,
			"componentType":5126,
			"count":24,
			"type":"VEC3"
		},
		{
			"bufferView":16,
			"componentType":5126,
			"count":24,
			"type":"VEC2"
		},
		{
			"bufferView":17,
			"componentType":5126,
			"count":24,
			"type":"VEC4"
		},
		{
			"bufferView":18,
			"componentType":5126,
			"count":112,
			"max":[
				1,
				1,
				1
			],
			"min":[
				-1,
				-1,
				-1
			],
			"type":"VEC3"
		},
		{
			"bufferView":19,
			"componentType":5126,
			"count":112,
			"type":"VEC3"
		},
		{
			"bufferView":20,
			"componentType":5126,
			"count":112,
			"type":"VEC2"
		},
		{
			"bufferView":21,
			"componentType":5126,
			"count":112,
			"type":"VEC4"
		},
		{
			"bufferView":22,
			"componentType":5123,
			"count":336,
			"type":"SCALAR"
		},
		{
			"bufferView":23,
			"componentType":5126,
			"count":24,
			"max":[
				1,
				1,
				1
			],
			"min":[
				-1,
				-1,
				-1
			],
			"type":"VEC3"
		},
		{
			"bufferView":24,
			"componentType":5126,
			"count":24,
			"type":"VEC3"
		},
		{
			"bufferView":25,
			"componentType":5126,
			"count":24,
			"type":"VEC2"
		},
		{
			"bufferView":26,
			"componentType":5126,
			"count":24,
			"type":"VEC4"
		},
		{
			"bufferView":27,
			"componentType":5126,
			"count":24,
			"max":[
				1,
				1,
				1
			],
			"min":[
				-1,
				-1,
				-1
			],
			"type":"VEC3"
		},
		{
			"bufferView":28,
			"componentType":5126,
			"count":24,
			"type":"VEC3"
		},
		{
			"bufferView":29,
			"componentType":5126,
			"count":24,
			"type":"VEC2"
		},
		{
			"bufferView":30,
			"componentType":5126,
			"count":24,
			"type":"VEC4"
		},
		{
			"bufferView":31,
			"componentType":5126,
			"count":608,
			"max":[
				1.4809683561325073,
				1.7205357551574707,
				1.0488998889923096
			],
			"min":[
				-1.3906347751617432,
				-1.3555536270141602,
				-1.1133830547332764
			],
			"type":"VEC3"
		},
		{
			"bufferView":32,
			"componentType":5126,
			"count":608,
			"type":"VEC3"
		},
		{
			"bufferView":33,
			"componentType":5126,
			"count":608,
			"type":"VEC2"
		},
		{
			"bufferView":34,
			"componentType":5126,
			"count":608,
			"type":"VEC4"
		},
		{
			"bufferView":35,
			"componentType":5123,
			"count":912,
			"type":"SCALAR"
		},
		{
			"bufferView":36,
			"componentType":5126,
			"count":508,
			"max":[
				0.9943254590034485,
				1.0000001192092896,
				0.9915433526039124
			],
			"min":[
				-0.9916105270385742,
				-1.0000001192092896,
				-0.9892321228981018
			],
			"type":"VEC3"
		},
		{
			"bufferView":37,
			"componentType":5126,
			"count":508,
			"type":"VEC3"
		},
		{
			"bufferView":38,
			"componentType":5126,
			"count":508,
			"type":"VEC2"
		},
		{
			"bufferView":39,
			"componentType":5126,
			"count":508,
			"type":"VEC4"
		},
		{
			"bufferView":40,
			"componentType":5126,
			"count":608,
			"max":[
				1.4809683561325073,
				1.7205357551574707,
				1.0488998889923096
			],
			"min":[
				-1.3906347751617432,
				-1.3555536270141602,
				-1.1133830547332764
			],
			"type":"VEC3"
		},
		{
			"bufferView":41,
			"componentType":5126,
			"count":608,
			"type":"VEC3"
		},
		{
			"bufferView":42,
			"componentType":5126,
			"count":608,
			"type":"VEC2"
		},
		{
			"bufferView":43,
			"componentType":5126,
			"count":608,
			"type":"VEC4"
		},
		{
			"bufferView":44,
			"componentType":5126,
			"count":1764,
			"max":[
				1.0165064334869385,
				0,
				1.0002106428146362
			],
			"min":[
				-1,
				-0.01583894155919552,
				-1
			],
			"type":"VEC3"
		},
		{
			"bufferView":45,
			"componentType":5126,
			"count":1764,
			"type":"VEC3"
		},
		{
			"bufferView":46,
			"componentType":5126,
			"count":1764,
			"type":"VEC2"
		},
		{
			"bufferView":47,
			"componentType":5126,
			"count":1764,
			"type":"VEC4"
		},
		{
			"bufferView":48,
			"componentType":5123,
			"count":2646,
			"type":"SCALAR"
		},
		{
			"bufferView":49,
			"componentType":5126,
			"count":508,
			"max":[
				0.9943254590034485,
				1.0000001192092896,
				0.9915433526039124
			],
			"min":[
				-0.9916105270385742,
				-1.0000001192092896,
				-0.9892321228981018
			],
			"type":"VEC3"
		},
		{
			"bufferView":50,
			"componentType":5126,
			"count":508,
			"type":"VEC3"
		},
		{
			"bufferView":51,
			"componentType":5126,
			"count":508,
			"type":"VEC2"
		},
		{
			"bufferView":52,
			"componentType":5126,
			"count":508,
			"type":"VEC4"
		},
		{
			"bufferView":53,
			"componentType":5126,
			"count":608,
			"max":[
				1.4809683561325073,
				1.7205357551574707,
				1.0488998889923096
			],
			"min":[
				-1.3906347751617432,
				-1.3555536270141602,
				-1.1133830547332764
			],
			"type":"VEC3"
		},
		{
			"bufferView":54,
			"componentType":5126,
			"count":608,
			"type":"VEC3"
		},
		{
			"bufferView":55,
			"componentType":5126,
			"count":608,
			"type":"VEC2"
		},
		{
			"bufferView":56,
			"componentType":5126,
			"count":608,
			"type":"VEC4"
		},
		{
			"bufferView":57,
			"componentType":5126,
			"count":608,
			"max":[
				1.4809683561325073,
				1.7205357551574707,
				1.0488998889923096
			],
			"min":[
				-1.3906347751617432,
				-1.3555536270141602,
				-1.1133830547332764
			],
			"type":"VEC3"
		},
		{
			"bufferView":58,
			"componentType":5126,
			"count":608,
			"type":"VEC3"
		},
		{
			"bufferView":59,
			"componentType":5126,
			"count":608,
			"type":"VEC2"
		},
		{
			"bufferView":60,
			"componentType":5126,
			"count":608,
			"type":"VEC4"
		}
	],
	"bufferViews":[
		{
			"buffer":0,
			"byteLength":6096,
			"byteOffset":0,
			"target":34962
		},
		{
			"buffer":0,
			"byteLength":6096,
			"byteOffset":6096,
			"target":34962
		},
		{
			"buffer":0,
			"byteLength":4064,
			"byteOffset":12192,
			"target":34962
		},
		{
			"buffer":0,
			"byteLength":8128,
			"byteOffset":16256,
			"target":34962
		},
		{
			"buffer":0,
			"byteLength":1824,
			"byteOffset":24384,
			"target":34963
		},
		{
			"buffer":0,
			"byteLength":6096,
			"byteOffset":26208,
			"target":34962
		},
		{
			"buffer":0,
			"byteLength":6096,
			"byteOffset":32304,
			"target":34962
		},
		{
			"buffer":0,
			"byteLength":4064,
			"byteOffset":38400,
			"target":34962
		},
		{
			"buffer":0,
			"byteLength":8128,
			"byteOffset":42464,
			"target":34962
		},
		{
			"buffer":0,
			"byteLength":288,
			"byteOffset":50592,
			"target":34962
		},
		{
			"buffer":0,
			"byteLength":288,
			"byteOffset":50880,
			"target":34962
		},
		{
			"buffer":0,
			"byteLength":192,
			"byteOffset":51168,
			"target":34962
		},
		{
			"buffer":0,
			"byteLength":384,
			"byteOffset":51360,
			"target":34962
		},
		{
			"buffer":0,
			"byteLength":72,
			"byteOffset":51744,
			"target":34963
		},
		{
			"buffer":0,
			"byteLength":288,
			"byteOffset":51816,
			"target":34962
		},
		{
			"buffer":0,
			"byteLength":288,
			"byteOffset":52104,
			"target":34962
		},
		{
			"buffer":0,
			"byteLength":192,
			"byteOffset":52392,
			"target":34962
		},
		{
			"buffer":0,
			"byteLength":384,
			"byteOffset":52584,
			"target":34962
		},
		{
			"buffer":0,
			"byteLength":1344,
			"byteOffset":52968,
			"target":34962
		},
		{
			"buffer":0,
			"byteLength":1344,
			"byteOffset":54312,
			"target":34962
		},
		{
			"buffer":0,
			"byteLength":896,
			"byteOffset":55656,
			"target":34962
		},
		{
			"buffer":0,
			"byteLength":1792,
			"byteOffset":56552,
			"target":34962
		},
		{
			"buffer":0,
			"byteLength":672,
			"byteOffset":58344,
			"target":34963
		},
		{
			"buffer":0,
			"byteLength":288,
			"byteOffset":59016,
			"target":34962
		},
		{
			"buffer":0,
			"byteLength":288,
			"byteOffset":59304,
			"target":34962
		},
		{
			"buffer":0,
			"byteLength":192,
			"byteOffset":59592,
			"target":34962
		},
		{
			"buffer":0,
			"byteLength":384,
			"byteOffset":59784,
			"target":34962
		},
		{
			"buffer":0,
			"byteLength":288,
			"byteOffset":60168,
			"target":34962
		},
		{
			"buffer":0,
			"byteLength":288,
			"byteOffset":60456,
			"target":34962
		},
		{
			"buffer":0,
			"byteLength":192,
			"byteOffset":60744,
			"target":34962
		},
		{
			"buffer":0,
			"byteLength":384,
			"byteOffset":60936,
			"target":34962
		},
		{
			"buffer":0,
			"byteLength":7296,
			"byteOffset":61320,
			"target":34962
		},
		{
			"buffer":0,
			"byteLength":7296,
			"byteOffset":68616,
			"target":34962
		},
		{
			"buffer":0,
			"byteLength":4864,
			"byteOffset":75912,
			"target":34962
		},
		{
			"buffer":0,
			"byteLength":9728,
			"byteOffset":80776,
			"target":34962
		},
		{
			"buffer":0,
			"byteLength":1824,
			"byteOffset":90504,
			"target":34963
		},
		{
			"buffer":0,
			"byteLength":6096,
			"byteOffset":92328,
			"target":34962
		},
		{
			"buffer":0,
			"byteLength":6096,
			"byteOffset":98424,
			"target":34962
		},
		{
			"buffer":0,
			"byteLength":4064,
			"byteOffset":104520,
			"target":34962
		},
		{
			"buffer":0,
			"byteLength":8128,
			"byteOffset":108584,
			"target":34962
		},
		{
			"buffer":0,
			"byteLength":7296,
			"byteOffset":116712,
			"target":34962
		},
		{
			"buffer":0,
			"byteLength":7296,
			"byteOffset":124008,
			"target":34962
		},
		{
			"buffer":0,
			"byteLength":4864,
			"byteOffset":131304,
			"target":34962
		},
		{
			"buffer":0,
			"byteLength":9728,
			"byteOffset":136168,
			"target":34962
		},
		{
			"buffer":0,
			"byteLength":21168,
			"byteOffset":145896,
			"target":34962
		},
		{
			"buffer":0,
			"byteLength":21168,
			"byteOffset":167064,
			"target":34962
		},
		{
			"buffer":0,
			"byteLength":14112,
			"byteOffset":188232,
			"target":34962
		},
		{
			"buffer":0,
			"byteLength":28224,
			"byteOffset":202344,
			"target":34962
		},
		{
			"buffer":0,
			"byteLength":5292,
			"byteOffset":230568,
			"target":34963
		},
		{
			"buffer":0,
			"byteLength":6096,
			"byteOffset":235860,
			"target":34962
		},
		{
			"buffer":0,
			"byteLength":6096,
			"byteOffset":241956,
			"target":34962
		},
		{
			"buffer":0,
			"byteLength":4064,
			"byteOffset":248052,
			"target":34962
		},
		{
			"buffer":0,
			"byteLength":8128,
			"byteOffset":252116,
			"target":34962
		},
		{
			"buffer":0,
			"byteLength":7296,
			"byteOffset":260244,
			"target":34962
		},
		{
			"buffer":0,
			"byteLength":7296,
			"byteOffset":267540,
			"target":34962
		},
		{
			"buffer":0,
			"byteLength":4864,
			"byteOffset":274836,
			"target":34962
		},
		{
			"buffer":0,
			"byteLength":9728,
			"byteOffset":279700,
			"target":34962
		},
		{
			"buffer":0,
			"byteLength":7296,
			"byteOffset":289428,
			"target":34962
		},
		{
			"buffer":0,
			"byteLength":7296,
			"byteOffset":296724,
			"target":34962
		},
		{
			"buffer":0,
			"byteLength":4864,
			"byteOffset":304020,
			"target":34962
		},
		{
			"buffer":0,
			"byteLength":9728,
			"byteOffset":308884,
			"target":34962
		}
	],
	"buffers":[
		{
			"byteLength":318612,
			"uri":"BedMansion-b9f42b1a36f6a3c6bfbaf72d32399424.bin"
		}
	]
}
