{
	"asset":{
		"generator":"Khronos glTF Blender I/O v4.5.48",
		"version":"2.0"
	},
	"scene":0,
	"scenes":[
		{
			"name":"Scene",
			"nodes":[
				0,
				1,
				2,
				3,
				4
			]
		}
	],
	"nodes":[
		{
			"mesh":0,
			"name":"Cylinder",
			"scale":[
				0.14791183173656464,
				0.16255490481853485,
				0.23276181519031525
			],
			"translation":[
				0.0037389968056231737,
				0.17858684062957764,
				-0.07904395461082458
			]
		},
		{
			"mesh":1,
			"name":"Sphere",
			"scale":[
				0.16255490481853485,
				0.16255490481853485,
				0.16255490481853485
			],
			"translation":[
				-0.001795018557459116,
				0.4362502098083496,
				-0.6829318404197693
			]
		},
		{
			"mesh":2,
			"name":"Torus",
			"scale":[
				0.17486269772052765,
				0.06428997218608856,
				0.24383236467838287
			],
			"translation":[
				-0.001795018557459116,
				0.48405033349990845,
				-0.04806999862194061
			]
		},
		{
			"mesh":3,
			"name":"Cylinder.001",
			"rotation":[
				-0.7100760340690613,
				0,
				0,
				0.7041250467300415
			],
			"scale":[
				0.21296732127666473,
				0.012108657509088516,
				0.3024846315383911
			],
			"translation":[
				-0.008200101554393768,
				0.5199459195137024,
				-0.33788031339645386
			]
		},
		{
			"mesh":4,
			"name":"Cylinder.002",
			"rotation":[
				0,
				0,
				-0.7071068286895752,
				0.7071068286895752
			],
			"scale":[
				0.016255490481853485,
				0.08127745240926743,
				0.016255490481853485
			],
			"translation":[
				-0.0026660882867872715,
				0.5137625932693481,
				-0.32561513781547546
			]
		}
	],
	"materials":[
		{
			"doubleSided":true,
			"name":"Toilet",
			"pbrMetallicRoughness":{
				"baseColorFactor":[
					0.6111887693405151,
					0.6111887693405151,
					0.6111887693405151,
					1
				],
				"metallicFactor":0.5,
				"roughnessFactor":0.5
			}
		}
	],
	"meshes":[
		{
			"name":"Cylinder",
			"primitives":[
				{
					"attributes":{
						"POSITION":0,
						"NORMAL":1,
						"TEXCOORD_0":2
					},
					"indices":3,
					"material":0
				}
			]
		},
		{
			"name":"Sphere",
			"primitives":[
				{
					"attributes":{
						"POSITION":4,
						"NORMAL":5,
						"TEXCOORD_0":6,
						"TANGENT":7
					},
					"indices":8,
					"material":0
				}
			]
		},
		{
			"name":"Torus",
			"primitives":[
				{
					"attributes":{
						"POSITION":9,
						"NORMAL":10,
						"TEXCOORD_0":11,
						"TANGENT":12
					},
					"indices":13
				}
			]
		},
		{
			"name":"Cylinder.001",
			"primitives":[
				{
					"attributes":{
						"POSITION":14,
						"NORMAL":15,
						"TEXCOORD_0":16
					},
					"indices":17
				}
			]
		},
		{
			"name":"Cylinder.002",
			"primitives":[
				{
					"attributes":{
						"POSITION":18,
						"NORMAL":19,
						"TEXCOORD_0":20
					},
					"indices":17,
					"material":0
				}
			]
		}
	],
	"accessors":[
		{
			"bufferView":0,
			"componentType":5126,
			"count":732,
			"max":[
				1,
				0.6780466437339783,
				1.0395865440368652
			],
			"min":[
				-1,
				-1,
				-1
			],
			"type":"VEC3"
		},
		{
			"bufferView":1,
			"componentType":5126,
			"count":732,
			"type":"VEC3"
		},
		{
			"bufferView":2,
			"componentType":5126,
			"count":732,
			"type":"VEC2"
		},
		{
			"bufferView":3,
			"componentType":5123,
			"count":1386,
			"type":"SCALAR"
		},
		{
			"bufferView":4,
			"componentType":5126,
			"count":658,
			"max":[
				1.3366643190383911,
				0.27706393599510193,
				5.663722991943359
			],
			"min":[
				-1.3366633653640747,
				-1.8129881620407104,
				2.0562381744384766
			],
			"type":"VEC3"
		},
		{
			"bufferView":5,
			"componentType":5126,
			"count":658,
			"type":"VEC3"
		},
		{
			"bufferView":6,
			"componentType":5126,
			"count":658,
			"type":"VEC2"
		},
		{
			"bufferView":7,
			"componentType":5126,
			"count":658,
			"type":"VEC4"
		},
		{
			"bufferView":8,
			"componentType":5123,
			"count":3072,
			"type":"SCALAR"
		},
		{
			"bufferView":9,
			"componentType":5126,
			"count":2304,
			"max":[
				1.25,
				0.25,
				1.25
			],
			"min":[
				-1.25,
				-0.25,
				-1.25
			],
			"type":"VEC3"
		},
		{
			"bufferView":10,
			"componentType":5126,
			"count":2304,
			"type":"VEC3"
		},
		{
			"bufferView":11,
			"componentType":5126,
			"count":2304,
			"type":"VEC2"
		},
		{
			"bufferView":12,
			"componentType":5126,
			"count":2304,
			"type":"VEC4"
		},
		{
			"bufferView":13,
			"componentType":5123,
			"count":3456,
			"type":"SCALAR"
		},
		{
			"bufferView":14,
			"componentType":5126,
			"count":192,
			"max":[
				1.0300754308700562,
				-8.392333984375e-05,
				1.958099603652954
			],
			"min":[
				-0.9699245691299438,
				-2.0000839233398438,
				-0.041900455951690674
			],
			"type":"VEC3"
		},
		{
			"bufferView":15,
			"componentType":5126,
			"count":192,
			"type":"VEC3"
		},
		{
			"bufferView":16,
			"componentType":5126,
			"count":192,
			"type":"VEC2"
		},
		{
			"bufferView":17,
			"componentType":5123,
			"count":372,
			"type":"SCALAR"
		},
		{
			"bufferView":18,
			"componentType":5126,
			"count":192,
			"max":[
				1,
				1,
				1
			],
			"min":[
				-1,
				-1,
				-1
			],
			"type":"VEC3"
		},
		{
			"bufferView":19,
			"componentType":5126,
			"count":192,
			"type":"VEC3"
		},
		{
			"bufferView":20,
			"componentType":5126,
			"count":192,
			"type":"VEC2"
		}
	],
	"bufferViews":[
		{
			"buffer":0,
			"byteLength":8784,
			"byteOffset":0,
			"target":34962
		},
		{
			"buffer":0,
			"byteLength":8784,
			"byteOffset":8784,
			"target":34962
		},
		{
			"buffer":0,
			"byteLength":5856,
			"byteOffset":17568,
			"target":34962
		},
		{
			"buffer":0,
			"byteLength":2772,
			"byteOffset":23424,
			"target":34963
		},
		{
			"buffer":0,
			"byteLength":7896,
			"byteOffset":26196,
			"target":34962
		},
		{
			"buffer":0,
			"byteLength":7896,
			"byteOffset":34092,
			"target":34962
		},
		{
			"buffer":0,
			"byteLength":5264,
			"byteOffset":41988,
			"target":34962
		},
		{
			"buffer":0,
			"byteLength":10528,
			"byteOffset":47252,
			"target":34962
		},
		{
			"buffer":0,
			"byteLength":6144,
			"byteOffset":57780,
			"target":34963
		},
		{
			"buffer":0,
			"byteLength":27648,
			"byteOffset":63924,
			"target":34962
		},
		{
			"buffer":0,
			"byteLength":27648,
			"byteOffset":91572,
			"target":34962
		},
		{
			"buffer":0,
			"byteLength":18432,
			"byteOffset":119220,
			"target":34962
		},
		{
			"buffer":0,
			"byteLength":36864,
			"byteOffset":137652,
			"target":34962
		},
		{
			"buffer":0,
			"byteLength":6912,
			"byteOffset":174516,
			"target":34963
		},
		{
			"buffer":0,
			"byteLength":2304,
			"byteOffset":181428,
			"target":34962
		},
		{
			"buffer":0,
			"byteLength":2304,
			"byteOffset":183732,
			"target":34962
		},
		{
			"buffer":0,
			"byteLength":1536,
			"byteOffset":186036,
			"target":34962
		},
		{
			"buffer":0,
			"byteLength":744,
			"byteOffset":187572,
			"target":34963
		},
		{
			"buffer":0,
			"byteLength":2304,
			"byteOffset":188316,
			"target":34962
		},
		{
			"buffer":0,
			"byteLength":2304,
			"byteOffset":190620,
			"target":34962
		},
		{
			"buffer":0,
			"byteLength":1536,
			"byteOffset":192924,
			"target":34962
		}
	],
	"buffers":[
		{
			"byteLength":194460,
			"uri":"DasAToilet-eb16a598b208938019b5c750a3555fb0.bin"
		}
	]
}
