{
	"asset":{
		"generator":"Khronos glTF Blender I/O v4.5.47",
		"version":"2.0"
	},
	"scene":0,
	"scenes":[
		{
			"name":"Scene",
			"nodes":[
				9
			]
		}
	],
	"nodes":[
		{
			"mesh":0,
			"name":"Back",
			"rotation":[
				0.0036996975541114807,
				-0.1941453516483307,
				-0.0007322040619328618,
				0.9809655547142029
			],
			"scale":[
				0.34981098771095276,
				0.34981095790863037,
				0.349810928106308
			],
			"translation":[
				4.175030543507319e-09,
				0.2984287738800049,
				0.0038292044773697853
			]
		},
		{
			"children":[
				0
			],
			"name":"Bone.001",
			"rotation":[
				0.7044349312782288,
				-2.081490294253245e-14,
				-2.081490294253245e-14,
				0.7097685933113098
			],
			"translation":[
				-2.071629374909327e-16,
				0.06323540210723877,
				0.2539058327674866
			]
		},
		{
			"mesh":1,
			"name":"Button",
			"scale":[
				0.10905731469392776,
				0.03991062939167023,
				0.1690908819437027
			],
			"translation":[
				1.6362475818709754e-09,
				-0.0681186318397522,
				-0.01668611168861389
			]
		},
		{
			"mesh":2,
			"name":"ButtonDesign",
			"scale":[
				0.10905731469392776,
				0.03991062939167023,
				0.1690908819437027
			],
			"translation":[
				1.5760595051261816e-09,
				-0.027650833129882812,
				-0.016984134912490845
			]
		},
		{
			"children":[
				2,
				3
			],
			"name":"Bone.003",
			"translation":[
				1.0444048588543532e-16,
				0.47035813331604004,
				-0.2681480944156647
			]
		},
		{
			"mesh":3,
			"name":"Glass",
			"rotation":[
				-0.9809558987617493,
				-0.0011304065119475126,
				0.1941433995962143,
				0.005711663048714399
			],
			"scale":[
				0.34981098771095276,
				0.34981098771095276,
				0.34981098771095276
			],
			"translation":[
				8.704353682276178e-09,
				0.027964020147919655,
				-0.05480857565999031
			]
		},
		{
			"children":[
				5
			],
			"name":"Bone.004",
			"rotation":[
				-0.7112119197845459,
				7.85006378888093e-17,
				7.85006246539195e-17,
				0.70297771692276
			],
			"translation":[
				2.4631762773908132e-17,
				0.11678779125213623,
				-0.9792442321777344
			]
		},
		{
			"mesh":4,
			"name":"Base",
			"rotation":[
				0.693652331829071,
				-0.13728244602680206,
				-0.13728243112564087,
				0.6936522722244263
			],
			"scale":[
				0.34981098771095276,
				0.34981095790863037,
				0.34981098771095276
			],
			"translation":[
				-3.5088296712615374e-09,
				0.06165730953216553,
				0.3925566077232361
			]
		},
		{
			"children":[
				1,
				4,
				6,
				7
			],
			"name":"Bone"
		},
		{
			"children":[
				8
			],
			"name":"Flashlight",
			"translation":[
				0,
				-0.08735471963882446,
				0.1405271738767624
			]
		}
	],
	"materials":[
		{
			"doubleSided":true,
			"name":"Material.003",
			"pbrMetallicRoughness":{
				"baseColorFactor":[
					0.05780242383480072,
					0.05780242383480072,
					0.05780242383480072,
					1
				],
				"metallicFactor":0,
				"roughnessFactor":0.5
			}
		},
		{
			"doubleSided":true,
			"name":"Material.002",
			"pbrMetallicRoughness":{
				"baseColorFactor":[
					0.800000011920929,
					0.05957238748669624,
					0.05669292435050011,
					1
				],
				"metallicFactor":0,
				"roughnessFactor":0.5
			}
		},
		{
			"doubleSided":true,
			"name":"Material.004",
			"pbrMetallicRoughness":{
				"baseColorFactor":[
					0.11068868637084961,
					0.016382742673158646,
					0.008231519721448421,
					1
				],
				"metallicFactor":0,
				"roughnessFactor":0.5
			}
		},
		{
			"doubleSided":true,
			"name":"Material.005",
			"pbrMetallicRoughness":{
				"baseColorFactor":[
					0.800000011920929,
					0.800000011920929,
					0.800000011920929,
					1
				],
				"metallicFactor":0,
				"roughnessFactor":0.5
			}
		},
		{
			"doubleSided":true,
			"name":"Material.001",
			"pbrMetallicRoughness":{
				"baseColorFactor":[
					0,
					0,
					0,
					1
				],
				"metallicFactor":0,
				"roughnessFactor":0.5
			}
		}
	],
	"meshes":[
		{
			"name":"Cylinder",
			"primitives":[
				{
					"attributes":{
						"POSITION":0,
						"NORMAL":1,
						"TEXCOORD_0":2
					},
					"indices":3,
					"material":0
				}
			]
		},
		{
			"name":"Cube.001",
			"primitives":[
				{
					"attributes":{
						"POSITION":4,
						"NORMAL":5,
						"TEXCOORD_0":6
					},
					"indices":7,
					"material":1
				}
			]
		},
		{
			"name":"Cube.011",
			"primitives":[
				{
					"attributes":{
						"POSITION":8,
						"NORMAL":9,
						"TEXCOORD_0":10,
						"TANGENT":11
					},
					"indices":12,
					"material":2
				}
			]
		},
		{
			"name":"Cylinder.002",
			"primitives":[
				{
					"attributes":{
						"POSITION":13,
						"NORMAL":14,
						"TEXCOORD_0":15
					},
					"indices":16,
					"material":3
				}
			]
		},
		{
			"name":"Cylinder.001",
			"primitives":[
				{
					"attributes":{
						"POSITION":17,
						"NORMAL":18,
						"TEXCOORD_0":19,
						"TANGENT":20
					},
					"indices":21,
					"material":4
				}
			]
		}
	],
	"skins":[
		{
			"inverseBindMatrices":22,
			"joints":[
				8,
				1,
				4,
				6
			],
			"name":"Flashlight"
		}
	],
	"accessors":[
		{
			"bufferView":0,
			"componentType":5126,
			"count":833,
			"max":[
				1,
				1,
				1
			],
			"min":[
				-1,
				-0.6522499918937683,
				-1.0000001192092896
			],
			"type":"VEC3"
		},
		{
			"bufferView":1,
			"componentType":5126,
			"count":833,
			"type":"VEC3"
		},
		{
			"bufferView":2,
			"componentType":5126,
			"count":833,
			"type":"VEC2"
		},
		{
			"bufferView":3,
			"componentType":5123,
			"count":1476,
			"type":"SCALAR"
		},
		{
			"bufferView":4,
			"componentType":5126,
			"count":80,
			"max":[
				1,
				1,
				1
			],
			"min":[
				-1,
				-0.44132786989212036,
				-1
			],
			"type":"VEC3"
		},
		{
			"bufferView":5,
			"componentType":5126,
			"count":80,
			"type":"VEC3"
		},
		{
			"bufferView":6,
			"componentType":5126,
			"count":80,
			"type":"VEC2"
		},
		{
			"bufferView":7,
			"componentType":5123,
			"count":132,
			"type":"SCALAR"
		},
		{
			"bufferView":8,
			"componentType":5126,
			"count":360,
			"max":[
				0.5647896528244019,
				0.06714892387390137,
				0.6073238849639893
			],
			"min":[
				-0.5647896528244019,
				-0.08992224931716919,
				-0.6053026914596558
			],
			"type":"VEC3"
		},
		{
			"bufferView":9,
			"componentType":5126,
			"count":360,
			"type":"VEC3"
		},
		{
			"bufferView":10,
			"componentType":5126,
			"count":360,
			"type":"VEC2"
		},
		{
			"bufferView":11,
			"componentType":5126,
			"count":360,
			"type":"VEC4"
		},
		{
			"bufferView":12,
			"componentType":5123,
			"count":540,
			"type":"SCALAR"
		},
		{
			"bufferView":13,
			"componentType":5126,
			"count":8,
			"max":[
				1.0652141571044922,
				0,
				1.0652141571044922
			],
			"min":[
				-1.0652141571044922,
				0,
				-1.0652141571044922
			],
			"type":"VEC3"
		},
		{
			"bufferView":14,
			"componentType":5126,
			"count":8,
			"type":"VEC3"
		},
		{
			"bufferView":15,
			"componentType":5126,
			"count":8,
			"type":"VEC2"
		},
		{
			"bufferView":16,
			"componentType":5123,
			"count":18,
			"type":"SCALAR"
		},
		{
			"bufferView":17,
			"componentType":5126,
			"count":352,
			"max":[
				1.441291093826294,
				0,
				1.441291093826294
			],
			"min":[
				-1.441291093826294,
				-5.27814245223999,
				-1.4412909746170044
			],
			"type":"VEC3"
		},
		{
			"bufferView":18,
			"componentType":5126,
			"count":352,
			"type":"VEC3"
		},
		{
			"bufferView":19,
			"componentType":5126,
			"count":352,
			"type":"VEC2"
		},
		{
			"bufferView":20,
			"componentType":5126,
			"count":352,
			"type":"VEC4"
		},
		{
			"bufferView":21,
			"componentType":5123,
			"count":576,
			"type":"SCALAR"
		},
		{
			"bufferView":22,
			"componentType":5126,
			"count":4,
			"type":"MAT4"
		}
	],
	"bufferViews":[
		{
			"buffer":0,
			"byteLength":9996,
			"byteOffset":0,
			"target":34962
		},
		{
			"buffer":0,
			"byteLength":9996,
			"byteOffset":9996,
			"target":34962
		},
		{
			"buffer":0,
			"byteLength":6664,
			"byteOffset":19992,
			"target":34962
		},
		{
			"buffer":0,
			"byteLength":2952,
			"byteOffset":26656,
			"target":34963
		},
		{
			"buffer":0,
			"byteLength":960,
			"byteOffset":29608,
			"target":34962
		},
		{
			"buffer":0,
			"byteLength":960,
			"byteOffset":30568,
			"target":34962
		},
		{
			"buffer":0,
			"byteLength":640,
			"byteOffset":31528,
			"target":34962
		},
		{
			"buffer":0,
			"byteLength":264,
			"byteOffset":32168,
			"target":34963
		},
		{
			"buffer":0,
			"byteLength":4320,
			"byteOffset":32432,
			"target":34962
		},
		{
			"buffer":0,
			"byteLength":4320,
			"byteOffset":36752,
			"target":34962
		},
		{
			"buffer":0,
			"byteLength":2880,
			"byteOffset":41072,
			"target":34962
		},
		{
			"buffer":0,
			"byteLength":5760,
			"byteOffset":43952,
			"target":34962
		},
		{
			"buffer":0,
			"byteLength":1080,
			"byteOffset":49712,
			"target":34963
		},
		{
			"buffer":0,
			"byteLength":96,
			"byteOffset":50792,
			"target":34962
		},
		{
			"buffer":0,
			"byteLength":96,
			"byteOffset":50888,
			"target":34962
		},
		{
			"buffer":0,
			"byteLength":64,
			"byteOffset":50984,
			"target":34962
		},
		{
			"buffer":0,
			"byteLength":36,
			"byteOffset":51048,
			"target":34963
		},
		{
			"buffer":0,
			"byteLength":4224,
			"byteOffset":51084,
			"target":34962
		},
		{
			"buffer":0,
			"byteLength":4224,
			"byteOffset":55308,
			"target":34962
		},
		{
			"buffer":0,
			"byteLength":2816,
			"byteOffset":59532,
			"target":34962
		},
		{
			"buffer":0,
			"byteLength":5632,
			"byteOffset":62348,
			"target":34962
		},
		{
			"buffer":0,
			"byteLength":1152,
			"byteOffset":67980,
			"target":34963
		},
		{
			"buffer":0,
			"byteLength":256,
			"byteOffset":69132
		}
	],
	"buffers":[
		{
			"byteLength":69388,
			"uri":"Flashlight-a1254dc8c3de7e946f58aeffced531ea.bin"
		}
	]
}
