{
	"asset":{
		"generator":"Khronos glTF Blender I/O v4.5.48",
		"version":"2.0"
	},
	"scene":0,
	"scenes":[
		{
			"name":"Scene",
			"nodes":[
				0
			]
		}
	],
	"nodes":[
		{
			"mesh":0,
			"name":"Hammer"
		}
	],
	"materials":[
		{
			"doubleSided":true,
			"name":"HAMMER",
			"pbrMetallicRoughness":{
				"baseColorFactor":[
					0.800000011920929,
					0.800000011920929,
					0.800000011920929,
					1
				],
				"metallicFactor":0,
				"roughnessFactor":0.5
			}
		}
	],
	"meshes":[
		{
			"name":"Hammer",
			"primitives":[
				{
					"attributes":{
						"POSITION":0,
						"NORMAL":1,
						"TEXCOORD_0":2,
						"TANGENT":3
					},
					"indices":4,
					"material":0
				}
			]
		}
	],
	"accessors":[
		{
			"bufferView":0,
			"componentType":5126,
			"count":10294,
			"max":[
				3.5633819103240967,
				0.8359959721565247,
				8.165310859680176
			],
			"min":[
				-3.357316017150879,
				-0.8237929940223694,
				-7.366522789001465
			],
			"type":"VEC3"
		},
		{
			"bufferView":1,
			"componentType":5126,
			"count":10294,
			"type":"VEC3"
		},
		{
			"bufferView":2,
			"componentType":5126,
			"count":10294,
			"type":"VEC2"
		},
		{
			"bufferView":3,
			"componentType":5126,
			"count":10294,
			"type":"VEC4"
		},
		{
			"bufferView":4,
			"componentType":5123,
			"count":16836,
			"type":"SCALAR"
		}
	],
	"bufferViews":[
		{
			"buffer":0,
			"byteLength":123528,
			"byteOffset":0,
			"target":34962
		},
		{
			"buffer":0,
			"byteLength":123528,
			"byteOffset":123528,
			"target":34962
		},
		{
			"buffer":0,
			"byteLength":82352,
			"byteOffset":247056,
			"target":34962
		},
		{
			"buffer":0,
			"byteLength":164704,
			"byteOffset":329408,
			"target":34962
		},
		{
			"buffer":0,
			"byteLength":33672,
			"byteOffset":494112,
			"target":34963
		}
	],
	"buffers":[
		{
			"byteLength":527784,
			"uri":"Hammer-97a61155f96ec2fb8805ec6b8406288f.bin"
		}
	]
}
