{
	"asset":{
		"generator":"Khronos glTF Blender I/O v4.5.48",
		"version":"2.0"
	},
	"extensionsUsed":[
		"KHR_lights_punctual"
	],
	"extensionsRequired":[
		"KHR_lights_punctual"
	],
	"extensions":{
		"KHR_lights_punctual":{
			"lights":[
				{
					"color":[
						1,
						1,
						1
					],
					"intensity":2,
					"type":"directional",
					"name":"Sun.001"
				}
			]
		}
	},
	"scene":0,
	"scenes":[
		{
			"name":"Scene",
			"nodes":[
				0,
				1,
				2,
				3,
				4,
				5,
				6
			]
		}
	],
	"nodes":[
		{
			"camera":0,
			"name":"Camera back",
			"rotation":[
				-0.018507322296500206,
				-0.9676655530929565,
				-0.2312493771314621,
				0.09901852905750275
			],
			"translation":[
				-2.644268035888672,
				4.230799674987793,
				-9.261934280395508
			]
		},
		{
			"mesh":0,
			"name":"table",
			"scale":[
				-28.689905166625977,
				-28.689905166625977,
				-28.689905166625977
			],
			"translation":[
				-14.277029037475586,
				-1.0403379201889038,
				-12.442636489868164
			]
		},
		{
			"extensions":{
				"KHR_lights_punctual":{
					"light":0
				}
			},
			"name":"Sun",
			"rotation":[
				-0.7071068286895752,
				0,
				0,
				0.7071068286895752
			],
			"translation":[
				1.6057109832763672,
				5.200616359710693,
				1.782094955444336
			]
		},
		{
			"mesh":1,
			"name":"reflector",
			"rotation":[
				-0.7192705273628235,
				0,
				0,
				0.6947301626205444
			],
			"scale":[
				0.6212798357009888,
				0.6838434338569641,
				0.6212798357009888
			],
			"translation":[
				0.07014863193035126,
				0.053687334060668945,
				3.5122196674346924
			]
		},
		{
			"mesh":2,
			"name":"Cap",
			"rotation":[
				-0.017353078350424767,
				0,
				0,
				0.9998494386672974
			],
			"translation":[
				-1.7306842803955078,
				-0.19965586066246033,
				-1.952362060546875
			]
		},
		{
			"mesh":3,
			"name":"body",
			"rotation":[
				-0.7272033095359802,
				0,
				0,
				0.6864221692085266
			],
			"translation":[
				0,
				-0.11938321590423584,
				-0.056368112564086914
			]
		},
		{
			"camera":1,
			"name":"Camera front",
			"rotation":[
				-0.16274505853652954,
				0.25143271684646606,
				0.03723949193954468,
				0.9533672332763672
			],
			"translation":[
				4.470194339752197,
				2.5961782932281494,
				8.573038101196289
			]
		}
	],
	"cameras":[
		{
			"name":"Camera.001",
			"perspective":{
				"aspectRatio":1.7777777777777777,
				"yfov":0.5033799372418416,
				"zfar":100,
				"znear":0.10000000149011612
			},
			"type":"perspective"
		},
		{
			"name":"Camera",
			"perspective":{
				"aspectRatio":1.7777777777777777,
				"yfov":0.5033799372418416,
				"zfar":100,
				"znear":0.10000000149011612
			},
			"type":"perspective"
		}
	],
	"materials":[
		{
			"doubleSided":true,
			"name":"Material.001"
		},
		{
			"doubleSided":true,
			"name":"Material.002"
		},
		{
			"doubleSided":true,
			"name":"Material.004"
		},
		{
			"doubleSided":true,
			"name":"Black"
		},
		{
			"doubleSided":true,
			"name":"Black.texture"
		},
		{
			"doubleSided":true,
			"name":"chrome"
		},
		{
			"doubleSided":true,
			"name":"chrome.waves"
		}
	],
	"meshes":[
		{
			"name":"Plane.001",
			"primitives":[
				{
					"attributes":{
						"POSITION":0,
						"NORMAL":1,
						"TEXCOORD_0":2,
						"TANGENT":3
					},
					"indices":4,
					"material":0
				}
			]
		},
		{
			"name":"Cone",
			"primitives":[
				{
					"attributes":{
						"POSITION":5,
						"NORMAL":6
					},
					"indices":7,
					"material":1
				},
				{
					"attributes":{
						"POSITION":8,
						"NORMAL":9
					},
					"indices":10,
					"material":2
				}
			]
		},
		{
			"name":"Cylinder.001",
			"primitives":[
				{
					"attributes":{
						"POSITION":11,
						"NORMAL":12
					},
					"indices":13,
					"material":3
				}
			]
		},
		{
			"name":"Mesh",
			"primitives":[
				{
					"attributes":{
						"POSITION":14,
						"NORMAL":15,
						"TEXCOORD_0":16,
						"TANGENT":17
					},
					"indices":18,
					"material":3
				},
				{
					"attributes":{
						"POSITION":19,
						"NORMAL":20,
						"TEXCOORD_0":21,
						"TANGENT":22
					},
					"indices":23,
					"material":4
				},
				{
					"attributes":{
						"POSITION":24,
						"NORMAL":25,
						"TEXCOORD_0":26,
						"TANGENT":27
					},
					"indices":28,
					"material":5
				},
				{
					"attributes":{
						"POSITION":29,
						"NORMAL":30,
						"TEXCOORD_0":31,
						"TANGENT":32
					},
					"indices":33,
					"material":6
				}
			]
		}
	],
	"accessors":[
		{
			"bufferView":0,
			"componentType":5126,
			"count":4,
			"max":[
				1,
				0,
				1
			],
			"min":[
				-1,
				0,
				-1
			],
			"type":"VEC3"
		},
		{
			"bufferView":1,
			"componentType":5126,
			"count":4,
			"type":"VEC3"
		},
		{
			"bufferView":2,
			"componentType":5126,
			"count":4,
			"type":"VEC2"
		},
		{
			"bufferView":3,
			"componentType":5126,
			"count":4,
			"type":"VEC4"
		},
		{
			"bufferView":4,
			"componentType":5123,
			"count":6,
			"type":"SCALAR"
		},
		{
			"bufferView":5,
			"componentType":5126,
			"count":338,
			"max":[
				1.1060847043991089,
				-0.9978069067001343,
				1.1229530572891235
			],
			"min":[
				-1.1447738409042358,
				-1.000807285308838,
				-1.127905249595642
			],
			"type":"VEC3"
		},
		{
			"bufferView":6,
			"componentType":5126,
			"count":338,
			"type":"VEC3"
		},
		{
			"bufferView":7,
			"componentType":5123,
			"count":1728,
			"type":"SCALAR"
		},
		{
			"bufferView":8,
			"componentType":5126,
			"count":722,
			"max":[
				1.1060847043991089,
				0.6697854399681091,
				1.1229530572891235
			],
			"min":[
				-1.1447738409042358,
				-0.9992228746414185,
				-1.127905249595642
			],
			"type":"VEC3"
		},
		{
			"bufferView":9,
			"componentType":5126,
			"count":722,
			"type":"VEC3"
		},
		{
			"bufferView":10,
			"componentType":5123,
			"count":4032,
			"type":"SCALAR"
		},
		{
			"bufferView":11,
			"componentType":5126,
			"count":2905,
			"max":[
				0.8135272264480591,
				0.7950336933135986,
				0.8135271072387695
			],
			"min":[
				-0.8135272264480591,
				-1.1762446165084839,
				-0.8135272860527039
			],
			"type":"VEC3"
		},
		{
			"bufferView":12,
			"componentType":5126,
			"count":2905,
			"type":"VEC3"
		},
		{
			"bufferView":13,
			"componentType":5123,
			"count":17280,
			"type":"SCALAR"
		},
		{
			"bufferView":14,
			"componentType":5126,
			"count":8377,
			"max":[
				1.098510503768921,
				2.609280586242676,
				1.0381889343261719
			],
			"min":[
				-0.9776821136474609,
				-4.300140380859375,
				-1.0383052825927734
			],
			"type":"VEC3"
		},
		{
			"bufferView":15,
			"componentType":5126,
			"count":8377,
			"type":"VEC3"
		},
		{
			"bufferView":16,
			"componentType":5126,
			"count":8377,
			"type":"VEC2"
		},
		{
			"bufferView":17,
			"componentType":5126,
			"count":8377,
			"type":"VEC4"
		},
		{
			"bufferView":18,
			"componentType":5123,
			"count":49584,
			"type":"SCALAR"
		},
		{
			"bufferView":19,
			"componentType":5126,
			"count":762,
			"max":[
				0.8305913209915161,
				2.270223617553711,
				0.7698739767074585
			],
			"min":[
				-0.7091565132141113,
				-0.4624093174934387,
				-0.7698737382888794
			],
			"type":"VEC3"
		},
		{
			"bufferView":20,
			"componentType":5126,
			"count":762,
			"type":"VEC3"
		},
		{
			"bufferView":21,
			"componentType":5126,
			"count":762,
			"type":"VEC2"
		},
		{
			"bufferView":22,
			"componentType":5126,
			"count":762,
			"type":"VEC4"
		},
		{
			"bufferView":23,
			"componentType":5123,
			"count":3456,
			"type":"SCALAR"
		},
		{
			"bufferView":24,
			"componentType":5126,
			"count":937,
			"max":[
				0.7826175689697266,
				3.1243839263916016,
				0.7294667959213257
			],
			"min":[
				-0.6611827611923218,
				-1.7267345190048218,
				-0.7143335342407227
			],
			"type":"VEC3"
		},
		{
			"bufferView":25,
			"componentType":5126,
			"count":937,
			"type":"VEC3"
		},
		{
			"bufferView":26,
			"componentType":5126,
			"count":937,
			"type":"VEC2"
		},
		{
			"bufferView":27,
			"componentType":5126,
			"count":937,
			"type":"VEC4"
		},
		{
			"bufferView":28,
			"componentType":5123,
			"count":5472,
			"type":"SCALAR"
		},
		{
			"bufferView":29,
			"componentType":5126,
			"count":486,
			"max":[
				0.7878817319869995,
				3.117340087890625,
				0.7295164465904236
			],
			"min":[
				-0.6664469242095947,
				2.6092803478240967,
				-0.7259277701377869
			],
			"type":"VEC3"
		},
		{
			"bufferView":30,
			"componentType":5126,
			"count":486,
			"type":"VEC3"
		},
		{
			"bufferView":31,
			"componentType":5126,
			"count":486,
			"type":"VEC2"
		},
		{
			"bufferView":32,
			"componentType":5126,
			"count":486,
			"type":"VEC4"
		},
		{
			"bufferView":33,
			"componentType":5123,
			"count":2304,
			"type":"SCALAR"
		}
	],
	"bufferViews":[
		{
			"buffer":0,
			"byteLength":48,
			"byteOffset":0,
			"target":34962
		},
		{
			"buffer":0,
			"byteLength":48,
			"byteOffset":48,
			"target":34962
		},
		{
			"buffer":0,
			"byteLength":32,
			"byteOffset":96,
			"target":34962
		},
		{
			"buffer":0,
			"byteLength":64,
			"byteOffset":128,
			"target":34962
		},
		{
			"buffer":0,
			"byteLength":12,
			"byteOffset":192,
			"target":34963
		},
		{
			"buffer":0,
			"byteLength":4056,
			"byteOffset":204,
			"target":34962
		},
		{
			"buffer":0,
			"byteLength":4056,
			"byteOffset":4260,
			"target":34962
		},
		{
			"buffer":0,
			"byteLength":3456,
			"byteOffset":8316,
			"target":34963
		},
		{
			"buffer":0,
			"byteLength":8664,
			"byteOffset":11772,
			"target":34962
		},
		{
			"buffer":0,
			"byteLength":8664,
			"byteOffset":20436,
			"target":34962
		},
		{
			"buffer":0,
			"byteLength":8064,
			"byteOffset":29100,
			"target":34963
		},
		{
			"buffer":0,
			"byteLength":34860,
			"byteOffset":37164,
			"target":34962
		},
		{
			"buffer":0,
			"byteLength":34860,
			"byteOffset":72024,
			"target":34962
		},
		{
			"buffer":0,
			"byteLength":34560,
			"byteOffset":106884,
			"target":34963
		},
		{
			"buffer":0,
			"byteLength":100524,
			"byteOffset":141444,
			"target":34962
		},
		{
			"buffer":0,
			"byteLength":100524,
			"byteOffset":241968,
			"target":34962
		},
		{
			"buffer":0,
			"byteLength":67016,
			"byteOffset":342492,
			"target":34962
		},
		{
			"buffer":0,
			"byteLength":134032,
			"byteOffset":409508,
			"target":34962
		},
		{
			"buffer":0,
			"byteLength":99168,
			"byteOffset":543540,
			"target":34963
		},
		{
			"buffer":0,
			"byteLength":9144,
			"byteOffset":642708,
			"target":34962
		},
		{
			"buffer":0,
			"byteLength":9144,
			"byteOffset":651852,
			"target":34962
		},
		{
			"buffer":0,
			"byteLength":6096,
			"byteOffset":660996,
			"target":34962
		},
		{
			"buffer":0,
			"byteLength":12192,
			"byteOffset":667092,
			"target":34962
		},
		{
			"buffer":0,
			"byteLength":6912,
			"byteOffset":679284,
			"target":34963
		},
		{
			"buffer":0,
			"byteLength":11244,
			"byteOffset":686196,
			"target":34962
		},
		{
			"buffer":0,
			"byteLength":11244,
			"byteOffset":697440,
			"target":34962
		},
		{
			"buffer":0,
			"byteLength":7496,
			"byteOffset":708684,
			"target":34962
		},
		{
			"buffer":0,
			"byteLength":14992,
			"byteOffset":716180,
			"target":34962
		},
		{
			"buffer":0,
			"byteLength":10944,
			"byteOffset":731172,
			"target":34963
		},
		{
			"buffer":0,
			"byteLength":5832,
			"byteOffset":742116,
			"target":34962
		},
		{
			"buffer":0,
			"byteLength":5832,
			"byteOffset":747948,
			"target":34962
		},
		{
			"buffer":0,
			"byteLength":3888,
			"byteOffset":753780,
			"target":34962
		},
		{
			"buffer":0,
			"byteLength":7776,
			"byteOffset":757668,
			"target":34962
		},
		{
			"buffer":0,
			"byteLength":4608,
			"byteOffset":765444,
			"target":34963
		}
	],
	"buffers":[
		{
			"byteLength":770052,
			"uri":"hand_light-73b606a91e968a4f2192011aae9bbb4f.bin"
		}
	]
}
