{
	"asset":{
		"generator":"Khronos glTF Blender I/O v4.5.48",
		"version":"2.0"
	},
	"scene":0,
	"scenes":[
		{
			"name":"Scene",
			"nodes":[
				0,
				1,
				2,
				3,
				4,
				5
			]
		}
	],
	"nodes":[
		{
			"mesh":0,
			"name":"Base",
			"scale":[
				0.08416572213172913,
				0.08416572213172913,
				0.08416572213172913
			],
			"translation":[
				0.12188175320625305,
				0.07819509506225586,
				0.019089162349700928
			]
		},
		{
			"mesh":1,
			"name":"Sink",
			"scale":[
				0.36107856035232544,
				0.06287713348865509,
				0.22184216976165771
			],
			"translation":[
				0.12188175320625305,
				0.6175241470336914,
				0.10288095474243164
			]
		},
		{
			"mesh":2,
			"name":"Drain",
			"scale":[
				0.015114597976207733,
				0.01783923991024494,
				0.015114597976207733
			],
			"translation":[
				0.12188175320625305,
				0.5497312545776367,
				-0.013002604246139526
			]
		},
		{
			"mesh":3,
			"name":"Water",
			"scale":[
				0.10363750159740448,
				0.003024258418008685,
				0.089968241751194
			],
			"translation":[
				0.12188175320625305,
				0.5611858367919922,
				0.019089162349700928
			]
		},
		{
			"mesh":4,
			"name":"Faucet",
			"scale":[
				0.014988861046731472,
				0.014988861046731472,
				0.014988861046731472
			],
			"translation":[
				0.125828817486763,
				0.6849716901779175,
				-0.09758386015892029
			]
		},
		{
			"mesh":5,
			"name":"Cylinder",
			"scale":[
				0.014538823626935482,
				0.014538823626935482,
				0.014538823626935482
			],
			"translation":[
				0.19457295536994934,
				0.6908602714538574,
				-0.09402933716773987
			]
		}
	],
	"animations":[
		{
			"channels":[
				{
					"sampler":0,
					"target":{
						"node":4,
						"path":"rotation"
					}
				}
			],
			"name":"CubeAction",
			"samplers":[
				{
					"input":26,
					"interpolation":"LINEAR",
					"output":27
				}
			]
		}
	],
	"materials":[
		{
			"doubleSided":true,
			"name":"Sink",
			"pbrMetallicRoughness":{
				"baseColorFactor":[
					0.8075045347213745,
					0.8075045347213745,
					0.8075045347213745,
					1
				],
				"metallicFactor":0.30000001192092896,
				"roughnessFactor":0.30000001192092896
			}
		},
		{
			"doubleSided":true,
			"name":"Material.003",
			"pbrMetallicRoughness":{
				"baseColorFactor":[
					0,
					0.03994384780526161,
					0.8001810312271118,
					1
				],
				"metallicFactor":0.5,
				"roughnessFactor":0.5
			}
		},
		{
			"doubleSided":true,
			"name":"Faucet",
			"pbrMetallicRoughness":{
				"baseColorFactor":[
					0.23763786256313324,
					0.23763786256313324,
					0.23763786256313324,
					1
				],
				"metallicFactor":0.5,
				"roughnessFactor":0.20000000298023224
			}
		},
		{
			"doubleSided":true,
			"name":"Switch",
			"pbrMetallicRoughness":{
				"baseColorFactor":[
					0.0555051825940609,
					0.9266543984413147,
					1,
					1
				],
				"roughnessFactor":0.5
			}
		}
	],
	"meshes":[
		{
			"name":"Cylinder",
			"primitives":[
				{
					"attributes":{
						"POSITION":0,
						"NORMAL":1,
						"TEXCOORD_0":2
					},
					"indices":3,
					"material":0
				}
			]
		},
		{
			"name":"Cube.001",
			"primitives":[
				{
					"attributes":{
						"POSITION":4,
						"NORMAL":5,
						"TEXCOORD_0":6,
						"TANGENT":7
					},
					"indices":8,
					"material":0
				}
			]
		},
		{
			"name":"Cylinder.001",
			"primitives":[
				{
					"attributes":{
						"POSITION":9,
						"NORMAL":10,
						"TEXCOORD_0":11
					},
					"indices":12
				}
			]
		},
		{
			"name":"Cylinder.002",
			"primitives":[
				{
					"attributes":{
						"POSITION":13,
						"NORMAL":14,
						"TEXCOORD_0":15
					},
					"indices":16,
					"material":1
				}
			]
		},
		{
			"name":"Mesh",
			"primitives":[
				{
					"attributes":{
						"POSITION":17,
						"NORMAL":18,
						"TEXCOORD_0":19,
						"TANGENT":20
					},
					"indices":21,
					"material":2
				}
			]
		},
		{
			"name":"Cylinder.003",
			"primitives":[
				{
					"attributes":{
						"POSITION":22,
						"NORMAL":23,
						"TEXCOORD_0":24
					},
					"indices":25,
					"material":3
				}
			]
		}
	],
	"accessors":[
		{
			"bufferView":0,
			"componentType":5126,
			"count":1166,
			"max":[
				2.634528160095215,
				5.637451171875,
				2.634528160095215
			],
			"min":[
				-2.634528160095215,
				-1,
				-2.634528160095215
			],
			"type":"VEC3"
		},
		{
			"bufferView":1,
			"componentType":5126,
			"count":1166,
			"type":"VEC3"
		},
		{
			"bufferView":2,
			"componentType":5126,
			"count":1166,
			"type":"VEC2"
		},
		{
			"bufferView":3,
			"componentType":5123,
			"count":3828,
			"type":"SCALAR"
		},
		{
			"bufferView":4,
			"componentType":5126,
			"count":8908,
			"max":[
				1,
				1.0000001192092896,
				0.9166667461395264
			],
			"min":[
				-1,
				-1.1406687498092651,
				-1.0000001192092896
			],
			"type":"VEC3"
		},
		{
			"bufferView":5,
			"componentType":5126,
			"count":8908,
			"type":"VEC3"
		},
		{
			"bufferView":6,
			"componentType":5126,
			"count":8908,
			"type":"VEC2"
		},
		{
			"bufferView":7,
			"componentType":5126,
			"count":8908,
			"type":"VEC4"
		},
		{
			"bufferView":8,
			"componentType":5123,
			"count":52224,
			"type":"SCALAR"
		},
		{
			"bufferView":9,
			"componentType":5126,
			"count":1152,
			"max":[
				1.5005323886871338,
				1.0066583156585693,
				1.5005323886871338
			],
			"min":[
				-1.5005323886871338,
				-1,
				-1.5005323886871338
			],
			"type":"VEC3"
		},
		{
			"bufferView":10,
			"componentType":5126,
			"count":1152,
			"type":"VEC3"
		},
		{
			"bufferView":11,
			"componentType":5126,
			"count":1152,
			"type":"VEC2"
		},
		{
			"bufferView":12,
			"componentType":5123,
			"count":1908,
			"type":"SCALAR"
		},
		{
			"bufferView":13,
			"componentType":5126,
			"count":384,
			"max":[
				1,
				1,
				1
			],
			"min":[
				-1,
				-1,
				-1
			],
			"type":"VEC3"
		},
		{
			"bufferView":14,
			"componentType":5126,
			"count":384,
			"type":"VEC3"
		},
		{
			"bufferView":15,
			"componentType":5126,
			"count":384,
			"type":"VEC2"
		},
		{
			"bufferView":16,
			"componentType":5123,
			"count":756,
			"type":"SCALAR"
		},
		{
			"bufferView":17,
			"componentType":5126,
			"count":45056,
			"max":[
				0.9714900255203247,
				3.885728359222412,
				7.010186195373535
			],
			"min":[
				-0.9714900851249695,
				-0.9166666865348816,
				-0.9294993281364441
			],
			"type":"VEC3"
		},
		{
			"bufferView":18,
			"componentType":5126,
			"count":45056,
			"type":"VEC3"
		},
		{
			"bufferView":19,
			"componentType":5126,
			"count":45056,
			"type":"VEC2"
		},
		{
			"bufferView":20,
			"componentType":5126,
			"count":45056,
			"type":"VEC4"
		},
		{
			"bufferView":21,
			"componentType":5123,
			"count":67584,
			"type":"SCALAR"
		},
		{
			"bufferView":22,
			"componentType":5126,
			"count":1034,
			"max":[
				1,
				1,
				1
			],
			"min":[
				-1,
				-1,
				-1
			],
			"type":"VEC3"
		},
		{
			"bufferView":23,
			"componentType":5126,
			"count":1034,
			"type":"VEC3"
		},
		{
			"bufferView":24,
			"componentType":5126,
			"count":1034,
			"type":"VEC2"
		},
		{
			"bufferView":25,
			"componentType":5123,
			"count":3060,
			"type":"SCALAR"
		},
		{
			"bufferView":26,
			"componentType":5126,
			"count":1,
			"max":[
				0.041666666666666664
			],
			"min":[
				0.041666666666666664
			],
			"type":"SCALAR"
		},
		{
			"bufferView":27,
			"componentType":5126,
			"count":1,
			"type":"VEC4"
		}
	],
	"bufferViews":[
		{
			"buffer":0,
			"byteLength":13992,
			"byteOffset":0,
			"target":34962
		},
		{
			"buffer":0,
			"byteLength":13992,
			"byteOffset":13992,
			"target":34962
		},
		{
			"buffer":0,
			"byteLength":9328,
			"byteOffset":27984,
			"target":34962
		},
		{
			"buffer":0,
			"byteLength":7656,
			"byteOffset":37312,
			"target":34963
		},
		{
			"buffer":0,
			"byteLength":106896,
			"byteOffset":44968,
			"target":34962
		},
		{
			"buffer":0,
			"byteLength":106896,
			"byteOffset":151864,
			"target":34962
		},
		{
			"buffer":0,
			"byteLength":71264,
			"byteOffset":258760,
			"target":34962
		},
		{
			"buffer":0,
			"byteLength":142528,
			"byteOffset":330024,
			"target":34962
		},
		{
			"buffer":0,
			"byteLength":104448,
			"byteOffset":472552,
			"target":34963
		},
		{
			"buffer":0,
			"byteLength":13824,
			"byteOffset":577000,
			"target":34962
		},
		{
			"buffer":0,
			"byteLength":13824,
			"byteOffset":590824,
			"target":34962
		},
		{
			"buffer":0,
			"byteLength":9216,
			"byteOffset":604648,
			"target":34962
		},
		{
			"buffer":0,
			"byteLength":3816,
			"byteOffset":613864,
			"target":34963
		},
		{
			"buffer":0,
			"byteLength":4608,
			"byteOffset":617680,
			"target":34962
		},
		{
			"buffer":0,
			"byteLength":4608,
			"byteOffset":622288,
			"target":34962
		},
		{
			"buffer":0,
			"byteLength":3072,
			"byteOffset":626896,
			"target":34962
		},
		{
			"buffer":0,
			"byteLength":1512,
			"byteOffset":629968,
			"target":34963
		},
		{
			"buffer":0,
			"byteLength":540672,
			"byteOffset":631480,
			"target":34962
		},
		{
			"buffer":0,
			"byteLength":540672,
			"byteOffset":1172152,
			"target":34962
		},
		{
			"buffer":0,
			"byteLength":360448,
			"byteOffset":1712824,
			"target":34962
		},
		{
			"buffer":0,
			"byteLength":720896,
			"byteOffset":2073272,
			"target":34962
		},
		{
			"buffer":0,
			"byteLength":135168,
			"byteOffset":2794168,
			"target":34963
		},
		{
			"buffer":0,
			"byteLength":12408,
			"byteOffset":2929336,
			"target":34962
		},
		{
			"buffer":0,
			"byteLength":12408,
			"byteOffset":2941744,
			"target":34962
		},
		{
			"buffer":0,
			"byteLength":8272,
			"byteOffset":2954152,
			"target":34962
		},
		{
			"buffer":0,
			"byteLength":6120,
			"byteOffset":2962424,
			"target":34963
		},
		{
			"buffer":0,
			"byteLength":4,
			"byteOffset":2968544
		},
		{
			"buffer":0,
			"byteLength":16,
			"byteOffset":2968548
		}
	],
	"buffers":[
		{
			"byteLength":2968564,
			"uri":"Sink-d265c13c2cceebf6996647eacfd19582.bin"
		}
	]
}
