{
	"asset":{
		"generator":"Khronos glTF Blender I/O v4.5.48",
		"version":"2.0"
	},
	"scene":0,
	"scenes":[
		{
			"name":"Scene",
			"nodes":[
				0,
				1
			]
		}
	],
	"nodes":[
		{
			"mesh":0,
			"name":"Cylinder",
			"scale":[
				1,
				4.990976810455322,
				1
			],
			"translation":[
				0,
				-3.8940958976745605,
				0
			]
		},
		{
			"mesh":1,
			"name":"Sphere",
			"scale":[
				6.347724914550781,
				6.347724914550781,
				6.347724914550781
			],
			"translation":[
				0,
				6.017961502075195,
				0
			]
		}
	],
	"materials":[
		{
			"doubleSided":true,
			"name":"Body",
			"pbrMetallicRoughness":{
				"baseColorFactor":[
					0.14844036102294922,
					0.017937932163476944,
					0.003430653363466263,
					1
				],
				"metallicFactor":0,
				"roughnessFactor":0.5
			}
		},
		{
			"doubleSided":true,
			"name":"Leaves",
			"pbrMetallicRoughness":{
				"baseColorFactor":[
					0,
					0.35214418172836304,
					0.005814451724290848,
					1
				],
				"metallicFactor":0,
				"roughnessFactor":0.5
			}
		}
	],
	"meshes":[
		{
			"name":"Cylinder",
			"primitives":[
				{
					"attributes":{
						"POSITION":0,
						"NORMAL":1,
						"TEXCOORD_0":2
					},
					"indices":3,
					"material":0
				}
			]
		},
		{
			"name":"Sphere",
			"primitives":[
				{
					"attributes":{
						"POSITION":4,
						"NORMAL":5,
						"TEXCOORD_0":6,
						"TANGENT":7
					},
					"indices":8,
					"material":1
				}
			]
		}
	],
	"accessors":[
		{
			"bufferView":0,
			"componentType":5126,
			"count":192,
			"max":[
				1.31783926486969,
				1.060422420501709,
				1.4278342723846436
			],
			"min":[
				-1.2890892028808594,
				-1.082794189453125,
				-1.4160219430923462
			],
			"type":"VEC3"
		},
		{
			"bufferView":1,
			"componentType":5126,
			"count":192,
			"type":"VEC3"
		},
		{
			"bufferView":2,
			"componentType":5126,
			"count":192,
			"type":"VEC2"
		},
		{
			"bufferView":3,
			"componentType":5123,
			"count":372,
			"type":"SCALAR"
		},
		{
			"bufferView":4,
			"componentType":5126,
			"count":559,
			"max":[
				1.0550434589385986,
				1.4482793807983398,
				1.0490648746490479
			],
			"min":[
				-1.1091824769973755,
				-1.102373719215393,
				-1.27005136013031
			],
			"type":"VEC3"
		},
		{
			"bufferView":5,
			"componentType":5126,
			"count":559,
			"type":"VEC3"
		},
		{
			"bufferView":6,
			"componentType":5126,
			"count":559,
			"type":"VEC2"
		},
		{
			"bufferView":7,
			"componentType":5126,
			"count":559,
			"type":"VEC4"
		},
		{
			"bufferView":8,
			"componentType":5123,
			"count":2880,
			"type":"SCALAR"
		}
	],
	"bufferViews":[
		{
			"buffer":0,
			"byteLength":2304,
			"byteOffset":0,
			"target":34962
		},
		{
			"buffer":0,
			"byteLength":2304,
			"byteOffset":2304,
			"target":34962
		},
		{
			"buffer":0,
			"byteLength":1536,
			"byteOffset":4608,
			"target":34962
		},
		{
			"buffer":0,
			"byteLength":744,
			"byteOffset":6144,
			"target":34963
		},
		{
			"buffer":0,
			"byteLength":6708,
			"byteOffset":6888,
			"target":34962
		},
		{
			"buffer":0,
			"byteLength":6708,
			"byteOffset":13596,
			"target":34962
		},
		{
			"buffer":0,
			"byteLength":4472,
			"byteOffset":20304,
			"target":34962
		},
		{
			"buffer":0,
			"byteLength":8944,
			"byteOffset":24776,
			"target":34962
		},
		{
			"buffer":0,
			"byteLength":5760,
			"byteOffset":33720,
			"target":34963
		}
	],
	"buffers":[
		{
			"byteLength":39480,
			"uri":"Tree-30927f6b94a2299e493c327fdc1117a2.bin"
		}
	]
}
