{
	"asset":{
		"generator":"Khronos glTF Blender I/O v4.5.48",
		"version":"2.0"
	},
	"scene":0,
	"scenes":[
		{
			"name":"Scene",
			"nodes":[
				0,
				1,
				2,
				3,
				4,
				5,
				6,
				7,
				8,
				9,
				10,
				11,
				12,
				13
			]
		}
	],
	"nodes":[
		{
			"mesh":0,
			"name":"Petals1",
			"rotation":[
				0.04275065287947655,
				0.004435788374394178,
				0.014090684242546558,
				0.9989765286445618
			],
			"scale":[
				0.029653964564204216,
				0.028498219326138496,
				0.023075265809893608
			],
			"translation":[
				-0.0005371154984459281,
				0.44651108980178833,
				-0.0525921992957592
			]
		},
		{
			"name":"Empty",
			"rotation":[
				0,
				0.7071068286895752,
				0,
				0.7071068286895752
			],
			"translation":[
				0,
				0.0011141616851091385,
				0
			]
		},
		{
			"mesh":1,
			"name":"Petals2",
			"rotation":[
				0.04275065287947655,
				0.004435788374394178,
				0.014090684242546558,
				0.9989765286445618
			],
			"scale":[
				0.029653964564204216,
				0.028498219326138496,
				0.023075265809893608
			],
			"translation":[
				-0.0005898292292840779,
				0.44672858715057373,
				-0.05354774743318558
			]
		},
		{
			"mesh":2,
			"name":"Petals3",
			"rotation":[
				0.04275065287947655,
				0.004435788374394178,
				0.014090684242546558,
				0.9989765286445618
			],
			"scale":[
				0.029653964564204216,
				0.028498219326138496,
				0.023075265809893608
			],
			"translation":[
				-0.0005898292292840779,
				0.44672858715057373,
				-0.05354774743318558
			]
		},
		{
			"mesh":3,
			"name":"Cube",
			"rotation":[
				-0.09934048354625702,
				0.0019631278701126575,
				0.014362694695591927,
				0.9949479103088379
			],
			"scale":[
				0.029653964564204216,
				0.028929000720381737,
				0.02253284864127636
			],
			"translation":[
				0,
				0.43356263637542725,
				-0.04694175347685814
			]
		},
		{
			"mesh":4,
			"name":"Cube.001",
			"rotation":[
				-0.5150691270828247,
				0,
				0,
				0.8571486473083496
			],
			"scale":[
				0.07652480900287628,
				0.025653991848230362,
				0.02396823652088642
			],
			"translation":[
				0,
				0.28580278158187866,
				-0.040344055742025375
			]
		},
		{
			"mesh":5,
			"name":"Petals1.001",
			"rotation":[
				0.06350365281105042,
				-0.0387498177587986,
				0.015501542948186398,
				0.997108519077301
			],
			"scale":[
				0.017542917281389236,
				0.015679435804486275,
				0.015372050926089287
			],
			"translation":[
				-0.00048707245150581,
				0.38785606622695923,
				0.015627605840563774
			]
		},
		{
			"name":"Empty.001",
			"rotation":[
				0,
				-0.7071068286895752,
				0,
				0.7071068286895752
			],
			"translation":[
				0,
				0.0011141616851091385,
				0.006801605224609375
			]
		},
		{
			"mesh":6,
			"name":"Petals2.001",
			"rotation":[
				0.06350365281105042,
				-0.0387498177587986,
				0.015501542948186398,
				0.997108519077301
			],
			"scale":[
				0.017542917281389236,
				0.015679435804486275,
				0.015372050926089287
			],
			"translation":[
				-0.0005195276462472975,
				0.3878304958343506,
				0.01604442298412323
			]
		},
		{
			"mesh":7,
			"name":"Petals3.001",
			"rotation":[
				0.06350365281105042,
				-0.0387498177587986,
				0.015501542948186398,
				0.997108519077301
			],
			"scale":[
				0.017542917281389236,
				0.015679435804486275,
				0.015372050926089287
			],
			"translation":[
				-0.0005033001652918756,
				0.3878432810306549,
				0.015836015343666077
			]
		},
		{
			"mesh":8,
			"name":"Cube.002",
			"rotation":[
				-0.018342114984989166,
				0.989396333694458,
				0.13913016021251678,
				0.03743597865104675
			],
			"scale":[
				0.017542917281389236,
				0.0156867653131485,
				0.015364572405815125
			],
			"translation":[
				0,
				0.38149285316467285,
				0.011577364057302475
			]
		},
		{
			"mesh":9,
			"name":"Cube.003",
			"rotation":[
				-0.00014120788546279073,
				-0.8297311067581177,
				-0.5581242442131042,
				0.006606779992580414
			],
			"scale":[
				0.09655492752790451,
				0.02975345216691494,
				0.026940856128931046
			],
			"translation":[
				0,
				0.28580278158187866,
				0.004767220467329025
			]
		},
		{
			"mesh":10,
			"name":"Cube.004",
			"scale":[
				0.045487161725759506,
				0.04035641625523567,
				0.048750463873147964
			],
			"translation":[
				0,
				0.29042714834213257,
				-0.017318375408649445
			]
		},
		{
			"mesh":11,
			"name":"Cylinder",
			"scale":[
				0.03714466094970703,
				0.004403276368975639,
				0.03646446019411087
			],
			"translation":[
				0,
				0.30536091327667236,
				-0.017585135996341705
			]
		}
	],
	"materials":[
		{
			"doubleSided":true,
			"name":"Rose",
			"pbrMetallicRoughness":{
				"baseColorFactor":[
					0.5146403312683105,
					0.0018716349732130766,
					0,
					1
				],
				"metallicFactor":0,
				"roughnessFactor":0.5
			}
		},
		{
			"doubleSided":true,
			"name":"Stem",
			"pbrMetallicRoughness":{
				"baseColorFactor":[
					0,
					0.1754714995622635,
					0.0018996354192495346,
					1
				],
				"metallicFactor":0,
				"roughnessFactor":0.5
			}
		},
		{
			"doubleSided":true,
			"name":"Leaf",
			"pbrMetallicRoughness":{
				"baseColorFactor":[
					0,
					0.8002511262893677,
					0.05718959495425224,
					1
				],
				"metallicFactor":0,
				"roughnessFactor":0.5
			}
		},
		{
			"doubleSided":true,
			"name":"Vase",
			"pbrMetallicRoughness":{
				"baseColorFactor":[
					0.6461626887321472,
					0.00534027349203825,
					0.802363395690918,
					1
				],
				"metallicFactor":0.800000011920929,
				"roughnessFactor":0.5
			}
		},
		{
			"doubleSided":true,
			"name":"Dirt",
			"pbrMetallicRoughness":{
				"baseColorFactor":[
					0.5044411420822144,
					0.1202789843082428,
					0.021162625402212143,
					1
				],
				"metallicFactor":0,
				"roughnessFactor":0.5
			}
		}
	],
	"meshes":[
		{
			"name":"Mesh",
			"primitives":[
				{
					"attributes":{
						"POSITION":0,
						"NORMAL":1,
						"TEXCOORD_0":2,
						"TANGENT":3
					},
					"indices":4,
					"material":0
				}
			]
		},
		{
			"name":"Mesh",
			"primitives":[
				{
					"attributes":{
						"POSITION":5,
						"NORMAL":6,
						"TEXCOORD_0":7,
						"TANGENT":8
					},
					"indices":9,
					"material":0
				}
			]
		},
		{
			"name":"Mesh",
			"primitives":[
				{
					"attributes":{
						"POSITION":10,
						"NORMAL":11,
						"TEXCOORD_0":12,
						"TANGENT":13
					},
					"indices":14,
					"material":0
				}
			]
		},
		{
			"name":"Mesh",
			"primitives":[
				{
					"attributes":{
						"POSITION":15,
						"NORMAL":16,
						"TEXCOORD_0":17,
						"TANGENT":18
					},
					"indices":19,
					"material":1
				}
			]
		},
		{
			"name":"Mesh",
			"primitives":[
				{
					"attributes":{
						"POSITION":20,
						"NORMAL":21,
						"TEXCOORD_0":22,
						"TANGENT":23
					},
					"indices":24,
					"material":2
				}
			]
		},
		{
			"name":"Mesh",
			"primitives":[
				{
					"attributes":{
						"POSITION":25,
						"NORMAL":26,
						"TEXCOORD_0":27,
						"TANGENT":28
					},
					"indices":4,
					"material":0
				}
			]
		},
		{
			"name":"Mesh",
			"primitives":[
				{
					"attributes":{
						"POSITION":29,
						"NORMAL":30,
						"TEXCOORD_0":31,
						"TANGENT":32
					},
					"indices":9,
					"material":0
				}
			]
		},
		{
			"name":"Mesh",
			"primitives":[
				{
					"attributes":{
						"POSITION":33,
						"NORMAL":34,
						"TEXCOORD_0":35,
						"TANGENT":36
					},
					"indices":14,
					"material":0
				}
			]
		},
		{
			"name":"Mesh",
			"primitives":[
				{
					"attributes":{
						"POSITION":37,
						"NORMAL":38,
						"TEXCOORD_0":39,
						"TANGENT":40
					},
					"indices":19,
					"material":1
				}
			]
		},
		{
			"name":"Mesh",
			"primitives":[
				{
					"attributes":{
						"POSITION":41,
						"NORMAL":42,
						"TEXCOORD_0":43,
						"TANGENT":44
					},
					"indices":24,
					"material":2
				}
			]
		},
		{
			"name":"Mesh",
			"primitives":[
				{
					"attributes":{
						"POSITION":45,
						"NORMAL":46,
						"TEXCOORD_0":47,
						"TANGENT":48
					},
					"indices":49,
					"material":3
				}
			]
		},
		{
			"name":"Cylinder",
			"primitives":[
				{
					"attributes":{
						"POSITION":50,
						"NORMAL":51,
						"TEXCOORD_0":52
					},
					"indices":53,
					"material":4
				}
			]
		}
	],
	"accessors":[
		{
			"bufferView":0,
			"componentType":5126,
			"count":7936,
			"max":[
				0.8990949392318726,
				1.3531748056411743,
				0.8990949392318726
			],
			"min":[
				-0.8990949392318726,
				0.057679545134305954,
				-0.8990949392318726
			],
			"type":"VEC3"
		},
		{
			"bufferView":1,
			"componentType":5126,
			"count":7936,
			"type":"VEC3"
		},
		{
			"bufferView":2,
			"componentType":5126,
			"count":7936,
			"type":"VEC2"
		},
		{
			"bufferView":3,
			"componentType":5126,
			"count":7936,
			"type":"VEC4"
		},
		{
			"bufferView":4,
			"componentType":5123,
			"count":11904,
			"type":"SCALAR"
		},
		{
			"bufferView":5,
			"componentType":5126,
			"count":7936,
			"max":[
				0.7151778340339661,
				1.2913063764572144,
				0.7151778340339661
			],
			"min":[
				-0.7151778340339661,
				0.1754792183637619,
				-0.7151778340339661
			],
			"type":"VEC3"
		},
		{
			"bufferView":6,
			"componentType":5126,
			"count":7936,
			"type":"VEC3"
		},
		{
			"bufferView":7,
			"componentType":5126,
			"count":7936,
			"type":"VEC2"
		},
		{
			"bufferView":8,
			"componentType":5126,
			"count":7936,
			"type":"VEC4"
		},
		{
			"bufferView":9,
			"componentType":5123,
			"count":11904,
			"type":"SCALAR"
		},
		{
			"bufferView":10,
			"componentType":5126,
			"count":7936,
			"max":[
				0.349037766456604,
				1.2343621253967285,
				0.349037766456604
			],
			"min":[
				-0.349037766456604,
				0.5671980381011963,
				-0.349037766456604
			],
			"type":"VEC3"
		},
		{
			"bufferView":11,
			"componentType":5126,
			"count":7936,
			"type":"VEC3"
		},
		{
			"bufferView":12,
			"componentType":5126,
			"count":7936,
			"type":"VEC2"
		},
		{
			"bufferView":13,
			"componentType":5126,
			"count":7936,
			"type":"VEC4"
		},
		{
			"bufferView":14,
			"componentType":5123,
			"count":11904,
			"type":"SCALAR"
		},
		{
			"bufferView":15,
			"componentType":5126,
			"count":750,
			"max":[
				0.23465217649936676,
				1.0000001192092896,
				0.2150978446006775
			],
			"min":[
				-0.23465217649936676,
				-4.8155131340026855,
				-0.7158072590827942
			],
			"type":"VEC3"
		},
		{
			"bufferView":16,
			"componentType":5126,
			"count":750,
			"type":"VEC3"
		},
		{
			"bufferView":17,
			"componentType":5126,
			"count":750,
			"type":"VEC2"
		},
		{
			"bufferView":18,
			"componentType":5126,
			"count":750,
			"type":"VEC4"
		},
		{
			"bufferView":19,
			"componentType":5123,
			"count":1152,
			"type":"SCALAR"
		},
		{
			"bufferView":20,
			"componentType":5126,
			"count":384,
			"max":[
				0.23272138833999634,
				5.829639434814453,
				2.6004669666290283
			],
			"min":[
				-0.2325575053691864,
				-0.016503671184182167,
				-0.018817024305462837
			],
			"type":"VEC3"
		},
		{
			"bufferView":21,
			"componentType":5126,
			"count":384,
			"type":"VEC3"
		},
		{
			"bufferView":22,
			"componentType":5126,
			"count":384,
			"type":"VEC2"
		},
		{
			"bufferView":23,
			"componentType":5126,
			"count":384,
			"type":"VEC4"
		},
		{
			"bufferView":24,
			"componentType":5123,
			"count":576,
			"type":"SCALAR"
		},
		{
			"bufferView":25,
			"componentType":5126,
			"count":7936,
			"max":[
				0.8990949392318726,
				1.3531748056411743,
				0.8990949392318726
			],
			"min":[
				-0.8990949392318726,
				0.057679545134305954,
				-0.8990949392318726
			],
			"type":"VEC3"
		},
		{
			"bufferView":26,
			"componentType":5126,
			"count":7936,
			"type":"VEC3"
		},
		{
			"bufferView":27,
			"componentType":5126,
			"count":7936,
			"type":"VEC2"
		},
		{
			"bufferView":28,
			"componentType":5126,
			"count":7936,
			"type":"VEC4"
		},
		{
			"bufferView":29,
			"componentType":5126,
			"count":7936,
			"max":[
				0.7151778340339661,
				1.2913063764572144,
				0.7151778340339661
			],
			"min":[
				-0.7151778340339661,
				0.1754792183637619,
				-0.7151778340339661
			],
			"type":"VEC3"
		},
		{
			"bufferView":30,
			"componentType":5126,
			"count":7936,
			"type":"VEC3"
		},
		{
			"bufferView":31,
			"componentType":5126,
			"count":7936,
			"type":"VEC2"
		},
		{
			"bufferView":32,
			"componentType":5126,
			"count":7936,
			"type":"VEC4"
		},
		{
			"bufferView":33,
			"componentType":5126,
			"count":7936,
			"max":[
				0.349037766456604,
				1.2343621253967285,
				0.349037766456604
			],
			"min":[
				-0.349037766456604,
				0.5671980381011963,
				-0.349037766456604
			],
			"type":"VEC3"
		},
		{
			"bufferView":34,
			"componentType":5126,
			"count":7936,
			"type":"VEC3"
		},
		{
			"bufferView":35,
			"componentType":5126,
			"count":7936,
			"type":"VEC2"
		},
		{
			"bufferView":36,
			"componentType":5126,
			"count":7936,
			"type":"VEC4"
		},
		{
			"bufferView":37,
			"componentType":5126,
			"count":750,
			"max":[
				0.23465217649936676,
				1.0000001192092896,
				0.2150978446006775
			],
			"min":[
				-0.23465217649936676,
				-4.8155131340026855,
				-0.7158072590827942
			],
			"type":"VEC3"
		},
		{
			"bufferView":38,
			"componentType":5126,
			"count":750,
			"type":"VEC3"
		},
		{
			"bufferView":39,
			"componentType":5126,
			"count":750,
			"type":"VEC2"
		},
		{
			"bufferView":40,
			"componentType":5126,
			"count":750,
			"type":"VEC4"
		},
		{
			"bufferView":41,
			"componentType":5126,
			"count":384,
			"max":[
				0.23272138833999634,
				5.829639434814453,
				2.6004669666290283
			],
			"min":[
				-0.2325575053691864,
				-0.016503671184182167,
				-0.018817024305462837
			],
			"type":"VEC3"
		},
		{
			"bufferView":42,
			"componentType":5126,
			"count":384,
			"type":"VEC3"
		},
		{
			"bufferView":43,
			"componentType":5126,
			"count":384,
			"type":"VEC2"
		},
		{
			"bufferView":44,
			"componentType":5126,
			"count":384,
			"type":"VEC4"
		},
		{
			"bufferView":45,
			"componentType":5126,
			"count":5632,
			"max":[
				1.4197760820388794,
				0.9630405902862549,
				1.4418408870697021
			],
			"min":[
				-1.4197760820388794,
				-4.157527923583984,
				-1.431104063987732
			],
			"type":"VEC3"
		},
		{
			"bufferView":46,
			"componentType":5126,
			"count":5632,
			"type":"VEC3"
		},
		{
			"bufferView":47,
			"componentType":5126,
			"count":5632,
			"type":"VEC2"
		},
		{
			"bufferView":48,
			"componentType":5126,
			"count":5632,
			"type":"VEC4"
		},
		{
			"bufferView":49,
			"componentType":5123,
			"count":8448,
			"type":"SCALAR"
		},
		{
			"bufferView":50,
			"componentType":5126,
			"count":192,
			"max":[
				1,
				1,
				1
			],
			"min":[
				-1,
				-1,
				-1
			],
			"type":"VEC3"
		},
		{
			"bufferView":51,
			"componentType":5126,
			"count":192,
			"type":"VEC3"
		},
		{
			"bufferView":52,
			"componentType":5126,
			"count":192,
			"type":"VEC2"
		},
		{
			"bufferView":53,
			"componentType":5123,
			"count":372,
			"type":"SCALAR"
		}
	],
	"bufferViews":[
		{
			"buffer":0,
			"byteLength":95232,
			"byteOffset":0,
			"target":34962
		},
		{
			"buffer":0,
			"byteLength":95232,
			"byteOffset":95232,
			"target":34962
		},
		{
			"buffer":0,
			"byteLength":63488,
			"byteOffset":190464,
			"target":34962
		},
		{
			"buffer":0,
			"byteLength":126976,
			"byteOffset":253952,
			"target":34962
		},
		{
			"buffer":0,
			"byteLength":23808,
			"byteOffset":380928,
			"target":34963
		},
		{
			"buffer":0,
			"byteLength":95232,
			"byteOffset":404736,
			"target":34962
		},
		{
			"buffer":0,
			"byteLength":95232,
			"byteOffset":499968,
			"target":34962
		},
		{
			"buffer":0,
			"byteLength":63488,
			"byteOffset":595200,
			"target":34962
		},
		{
			"buffer":0,
			"byteLength":126976,
			"byteOffset":658688,
			"target":34962
		},
		{
			"buffer":0,
			"byteLength":23808,
			"byteOffset":785664,
			"target":34963
		},
		{
			"buffer":0,
			"byteLength":95232,
			"byteOffset":809472,
			"target":34962
		},
		{
			"buffer":0,
			"byteLength":95232,
			"byteOffset":904704,
			"target":34962
		},
		{
			"buffer":0,
			"byteLength":63488,
			"byteOffset":999936,
			"target":34962
		},
		{
			"buffer":0,
			"byteLength":126976,
			"byteOffset":1063424,
			"target":34962
		},
		{
			"buffer":0,
			"byteLength":23808,
			"byteOffset":1190400,
			"target":34963
		},
		{
			"buffer":0,
			"byteLength":9000,
			"byteOffset":1214208,
			"target":34962
		},
		{
			"buffer":0,
			"byteLength":9000,
			"byteOffset":1223208,
			"target":34962
		},
		{
			"buffer":0,
			"byteLength":6000,
			"byteOffset":1232208,
			"target":34962
		},
		{
			"buffer":0,
			"byteLength":12000,
			"byteOffset":1238208,
			"target":34962
		},
		{
			"buffer":0,
			"byteLength":2304,
			"byteOffset":1250208,
			"target":34963
		},
		{
			"buffer":0,
			"byteLength":4608,
			"byteOffset":1252512,
			"target":34962
		},
		{
			"buffer":0,
			"byteLength":4608,
			"byteOffset":1257120,
			"target":34962
		},
		{
			"buffer":0,
			"byteLength":3072,
			"byteOffset":1261728,
			"target":34962
		},
		{
			"buffer":0,
			"byteLength":6144,
			"byteOffset":1264800,
			"target":34962
		},
		{
			"buffer":0,
			"byteLength":1152,
			"byteOffset":1270944,
			"target":34963
		},
		{
			"buffer":0,
			"byteLength":95232,
			"byteOffset":1272096,
			"target":34962
		},
		{
			"buffer":0,
			"byteLength":95232,
			"byteOffset":1367328,
			"target":34962
		},
		{
			"buffer":0,
			"byteLength":63488,
			"byteOffset":1462560,
			"target":34962
		},
		{
			"buffer":0,
			"byteLength":126976,
			"byteOffset":1526048,
			"target":34962
		},
		{
			"buffer":0,
			"byteLength":95232,
			"byteOffset":1653024,
			"target":34962
		},
		{
			"buffer":0,
			"byteLength":95232,
			"byteOffset":1748256,
			"target":34962
		},
		{
			"buffer":0,
			"byteLength":63488,
			"byteOffset":1843488,
			"target":34962
		},
		{
			"buffer":0,
			"byteLength":126976,
			"byteOffset":1906976,
			"target":34962
		},
		{
			"buffer":0,
			"byteLength":95232,
			"byteOffset":2033952,
			"target":34962
		},
		{
			"buffer":0,
			"byteLength":95232,
			"byteOffset":2129184,
			"target":34962
		},
		{
			"buffer":0,
			"byteLength":63488,
			"byteOffset":2224416,
			"target":34962
		},
		{
			"buffer":0,
			"byteLength":126976,
			"byteOffset":2287904,
			"target":34962
		},
		{
			"buffer":0,
			"byteLength":9000,
			"byteOffset":2414880,
			"target":34962
		},
		{
			"buffer":0,
			"byteLength":9000,
			"byteOffset":2423880,
			"target":34962
		},
		{
			"buffer":0,
			"byteLength":6000,
			"byteOffset":2432880,
			"target":34962
		},
		{
			"buffer":0,
			"byteLength":12000,
			"byteOffset":2438880,
			"target":34962
		},
		{
			"buffer":0,
			"byteLength":4608,
			"byteOffset":2450880,
			"target":34962
		},
		{
			"buffer":0,
			"byteLength":4608,
			"byteOffset":2455488,
			"target":34962
		},
		{
			"buffer":0,
			"byteLength":3072,
			"byteOffset":2460096,
			"target":34962
		},
		{
			"buffer":0,
			"byteLength":6144,
			"byteOffset":2463168,
			"target":34962
		},
		{
			"buffer":0,
			"byteLength":67584,
			"byteOffset":2469312,
			"target":34962
		},
		{
			"buffer":0,
			"byteLength":67584,
			"byteOffset":2536896,
			"target":34962
		},
		{
			"buffer":0,
			"byteLength":45056,
			"byteOffset":2604480,
			"target":34962
		},
		{
			"buffer":0,
			"byteLength":90112,
			"byteOffset":2649536,
			"target":34962
		},
		{
			"buffer":0,
			"byteLength":16896,
			"byteOffset":2739648,
			"target":34963
		},
		{
			"buffer":0,
			"byteLength":2304,
			"byteOffset":2756544,
			"target":34962
		},
		{
			"buffer":0,
			"byteLength":2304,
			"byteOffset":2758848,
			"target":34962
		},
		{
			"buffer":0,
			"byteLength":1536,
			"byteOffset":2761152,
			"target":34962
		},
		{
			"buffer":0,
			"byteLength":744,
			"byteOffset":2762688,
			"target":34963
		}
	],
	"buffers":[
		{
			"byteLength":2763432,
			"uri":"Vase-9590abbd76d36d0d55510b3a30bd2096.bin"
		}
	]
}
