{
	"asset":{
		"generator":"Khronos glTF Blender I/O v4.5.48",
		"version":"2.0"
	},
	"scene":0,
	"scenes":[
		{
			"extras":{
				"ats_settings":{
					"num_tiles":[
						63,
						63
					],
					"threads_error":0,
					"prev_engine":"CYCLES",
					"prev_device":"CPU",
					"prev_border":0,
					"prev_threads":4,
					"prev_choice":"32",
					"prev_res":[
						2000,
						2000
					],
					"prev_border_res":[
						0.0,
						0.0,
						1.0,
						1.0
					],
					"prev_actual_tile_size":[
						32,
						32
					],
					"first_run":0
				}
			},
			"name":"Scene",
			"nodes":[
				0,
				1
			]
		}
	],
	"nodes":[
		{
			"extras":{
				"ant_landscape":{},
				"BoolToolRoot":1
			},
			"mesh":0,
			"name":"Mask",
			"rotation":[
				-0.1862412542104721,
				-0.22960247099399567,
				0.11859266459941864,
				0.9479097723960876
			],
			"scale":[
				2.0168166160583496,
				2.0168166160583496,
				2.0168166160583496
			],
			"translation":[
				0,
				1.3655765056610107,
				0.022476643323898315
			]
		},
		{
			"camera":0,
			"name":"Camera",
			"rotation":[
				0,
				0.7071068286895752,
				0,
				0.7071068286895752
			],
			"translation":[
				8.252052307128906,
				1.3656609058380127,
				0.03814449533820152
			]
		}
	],
	"cameras":[
		{
			"name":"Camera",
			"perspective":{
				"aspectRatio":1,
				"yfov":0.6911112070083618,
				"zfar":1000,
				"znear":0.10000000149011612
			},
			"type":"perspective"
		}
	],
	"materials":[
		{
			"doubleSided":true,
			"name":"Material.001",
			"normalTexture":{
				"index":0
			},
			"pbrMetallicRoughness":{
				"baseColorTexture":{
					"index":1
				},
				"metallicRoughnessTexture":{
					"index":2
				}
			}
		}
	],
	"meshes":[
		{
			"name":"Sphere",
			"primitives":[
				{
					"attributes":{
						"POSITION":0,
						"NORMAL":1,
						"TEXCOORD_0":2
					},
					"indices":3,
					"material":0
				}
			]
		}
	],
	"textures":[
		{
			"sampler":0,
			"source":0
		},
		{
			"sampler":0,
			"source":1
		},
		{
			"sampler":0,
			"source":2
		}
	],
	"images":[
		{
			"mimeType":"image/png",
			"name":"marks_Material.001_Normal.png",
			"uri":"../../MansionThingsGodot/character%20model/vii/textures/marks_Material.001_Normal.png"
		},
		{
			"mimeType":"image/png",
			"name":"marks_Material.001_BaseColor.png",
			"uri":"../../MansionThingsGodot/character%20model/vii/textures/marks_Material.001_BaseColor.png"
		},
		{
			"mimeType":"image/png",
			"name":"marks_Material.001_Roughness.png",
			"uri":"../../MansionThingsGodot/character%20model/vii/textures/marks_Material.001_Roughness.png"
		}
	],
	"accessors":[
		{
			"bufferView":0,
			"componentType":5126,
			"count":6050,
			"max":[
				0.5045455098152161,
				1.269925832748413,
				1.0286132097244263
			],
			"min":[
				0.0035956106148660183,
				-1.2699239253997803,
				-1.0286132097244263
			],
			"type":"VEC3"
		},
		{
			"bufferView":1,
			"componentType":5126,
			"count":6050,
			"type":"VEC3"
		},
		{
			"bufferView":2,
			"componentType":5126,
			"count":6050,
			"type":"VEC2"
		},
		{
			"bufferView":3,
			"componentType":5123,
			"count":9576,
			"type":"SCALAR"
		}
	],
	"bufferViews":[
		{
			"buffer":0,
			"byteLength":72600,
			"byteOffset":0,
			"target":34962
		},
		{
			"buffer":0,
			"byteLength":72600,
			"byteOffset":72600,
			"target":34962
		},
		{
			"buffer":0,
			"byteLength":48400,
			"byteOffset":145200,
			"target":34962
		},
		{
			"buffer":0,
			"byteLength":19152,
			"byteOffset":193600,
			"target":34963
		}
	],
	"samplers":[
		{
			"magFilter":9729,
			"minFilter":9987
		}
	],
	"buffers":[
		{
			"byteLength":212752,
			"uri":"Wooden%20Mask-376283a911dca923a0d892c493f91818.bin"
		}
	]
}
